<svg xmlns="http://www.w3.org/2000/svg" xmlns:xlink="http://www.w3.org/1999/xlink" width="286.956" height="267.452" viewBox="0 0 286.956 267.452">
  <path fill="#E6E7E8" d="M275.605 117.514c-.992-.297-2-.46-3.016-.515-1.623-13.407-5.237-26.2-10.538-38.074-.45-1.603-1.05-3.177-1.646-4.73-1.498-3.89-3.003-7.802-5.094-11.41-1.24-2.137-2.678-4.155-3.895-6.305-1.31-2.312-2.37-4.784-3.998-6.883-2.24-2.883-5.417-4.885-7.94-7.524-2.573-2.696-4.462-6.055-7.39-8.365-2.055-1.622-4.512-2.638-6.758-3.984-4.542-2.724-8.156-6.765-12.58-9.677-1.93-1.27-3.996-2.313-6.08-3.307-3.888-1.852-7.854-3.536-11.817-5.22l-13.432-5.71 1.638-.17c-1.34-.18-2.702-.146-4.04.052C166.8 1.996 153.84 0 140.412 0c-13.414 0-26.36 1.992-38.57 5.682-.417.078-.826.167-1.22.263-6.86 1.67-13.817 3.38-19.974 6.84-4.052 2.278-7.74 5.288-12.015 7.05-2.8.88-7.65 2.12-9.38 4.365-.785 1.02-1.195 2.28-1.907 3.352-1.18 1.772-3.085 2.902-4.878 4.05-7.044 4.52-13.406 10.43-17.463 17.698-.647 1.164-1.245 2.36-1.77 3.593-.434 1.02-.837 2.065-1.323 3.062-.654.917-1.3 1.843-1.93 2.777-.946.89-2.13 1.516-3.416 1.52-.486 0-.99-.083-1.446.09-1.003.377-1.192 1.683-1.284 2.752-.344 3.925-1.583 7.77-3.6 11.156-1.13 1.894-2.508 3.67-3.244 5.75-.44 1.245-.594 2.655-.328 3.934-1.28 3.215-2.443 6.49-3.474 9.822-2.13-.145-4.257.285-6.218 1.404-6.77 3.862-8.993 14.247-4.967 23.192 1.227 2.725 2.898 4.984 4.813 6.722-.035.047-.077.09-.11.138-2.484 3.524-2.243 8.238-1.667 12.512 1.042 7.723 2.83 15.293 5.032 22.765 2.377 11.396 6.215 22.256 11.304 32.38 2.886 7.527 6.17 14.95 11.433 21 2.884 3.318 6.292 6.135 9.42 9.223.876.955 1.768 1.894 2.67 2.823 4.397 4.935 8.12 10.524 13.236 14.7 5.267 4.297 11.714 6.837 18.045 9.312.234.09.47.183.703.274 9.904 5.387 20.57 9.544 31.792 12.288 4.948 1.743 9.97 3.238 15.142 4.083 10.23 1.67 20.582.75 30.85-1.027 8.808-.938 17.352-2.748 25.56-5.318l.48-.104c7.67-1.67 15.76-3.565 21.423-8.98.915-.478 1.826-.963 2.728-1.463 1.54-.31 3.016-.983 3.977-2.202.037-.047.063-.102.098-.15.987-.595 1.975-1.19 2.945-1.808 5.817 1.984 13.863-.72 19.824-7.18 4.233-4.59 6.48-10.07 6.555-14.883 1.008-1.09 2.002-2.195 2.974-3.32.113-.064.23-.12.343-.186 2.864-1.705 5.437-3.9 7.552-6.477.85-1.036 1.628-2.13 2.51-3.137.872-.992 1.84-1.894 2.752-2.85 5.79-6.062 9.027-13.93 11.2-22.124l1.636-6.82c.095-.32.232-.62.442-.89.33-.42.797-.716 1.116-1.144.924-1.24.167-3.11-1.138-3.953.684-2.21 1.307-4.444 1.877-6.7 6.8-2.32 13.11-9.395 15.954-18.9 4.015-13.428-.402-26.61-9.87-29.44z"/>
  <path fill="#2B2B2B" d="M587.162-66.57h1600v585h-1600z"/>
  <path fill="#2B2B2B" d="M826.18-66.57h1121.965v585H826.18z"/>
  <g opacity=".25">
    <path fill="#6D6E71" d="M1124.71 118.204h49.03l28.377 102.34c6.02 21.5 11.402 41.498 16.13 59.987 4.728 18.49 7.952 31.607 9.675 39.343l2.577 11.61c3.727-25.507 11.754-62.632 24.08-111.368l26.657-106.216h67.516l-77.408 289.825h-73.956l-25.374-91.588c-6.016-22.074-10.96-40.706-14.832-55.904-3.87-15.19-6.238-24.94-7.1-29.24l-.855-6.45c-.863 11.76-8.605 42.29-23.227 91.595l-26.658 91.588h-73.964L947.557 113.9h69.66l26.658 106.643c5.732 22.938 10.465 43.646 14.195 62.137 3.717 18.49 6.018 31.325 6.876 38.485l1.716 10.32c4.873-22.358 14.622-59.34 29.246-110.94l28.803-102.34zM1451.52 350.836h113.528v52.89h-180.176V113.898h178.448v52.89h-111.8v65.792h99.765v52.46h-99.765v65.794zM1618.794 113.9h112.663c31.82 0 56.037 7.525 72.67 22.578 16.622 15.047 24.938 34.182 24.938 57.404 0 15.198-4.016 28.527-12.036 39.99-8.037 11.472-18.494 19.21-31.396 23.22 33.546 10.04 50.315 32.685 50.315 67.94 0 22.94-8.247 41.787-24.73 56.55-16.486 14.767-38.917 22.143-67.3 22.143h-125.127V113.9zm66.22 52.89v64.937h24.514c17.195 0 30.165-3.155 38.912-9.46 8.742-6.305 13.12-14.623 13.12-24.94 0-20.353-13.767-30.536-41.28-30.536h-35.266zm0 184.046h34.836c32.676 0 49.016-11.182 49.016-33.538 0-22.364-16.197-33.543-48.586-33.543h-35.266v67.08z"/>
    <path fill="#BCBEC0" d="M954.855 155.457l11.15-129.526h32.48l18.057 46.89c3.08 7.82 5.7 14.992 7.884 21.524 2.174 6.536 3.584 11.147 4.228 13.84l.96 3.84c2.046-8.455 6.534-21.52 13.454-39.204l18.254-46.89h32.476l13.454 129.526h-29.597l-4.806-50.157-2.497-37.86c-3.33 9.608-7.942 22.228-13.834 37.86l-18.255 48.808h-17.49l-18.066-48.81c-2.95-7.94-5.442-15.052-7.496-21.33-2.053-6.278-3.393-10.632-4.03-13.07l-.965-3.457c0 9.098-.577 21.716-1.73 37.86l-4.035 50.156h-29.6zM1131.27 155.457V25.93h29.598v129.527h-29.598zM1262.52 31.7v27.67c-10.378-6.02-21.142-9.032-32.287-9.032-4.995 0-8.81 1.027-11.428 3.075-2.634 2.05-3.94 4.678-3.94 7.878 0 3.208 1.597 6.056 4.8 8.554 3.204 2.497 8.002 5.157 14.417 7.974 3.968 1.797 7.268 3.364 9.89 4.708 2.627 1.346 5.64 3.205 9.034 5.574 3.396 2.372 6.084 4.87 8.07 7.497 1.986 2.627 3.684 5.858 5.093 9.704 1.414 3.842 2.115 8.01 2.115 12.49 0 11.66-4.294 21.11-12.875 28.348-8.584 7.24-19.99 10.857-34.208 10.857-15.25 0-27.67-2.692-37.278-8.07v-29.787c11.655 8.455 24.084 12.682 37.278 12.682 4.483 0 8.197-1.18 11.147-3.553 2.945-2.37 4.418-5.478 4.418-9.32 0-1.28-.192-2.5-.576-3.653-.384-1.153-1.09-2.24-2.11-3.268-1.03-1.024-2.023-1.888-2.982-2.593-.964-.704-2.374-1.538-4.23-2.498-1.855-.962-3.427-1.762-4.71-2.402-1.274-.643-3.167-1.538-5.663-2.69-2.5-1.153-4.52-2.048-6.058-2.69-8.326-3.844-15.022-8.583-20.08-14.223-5.063-5.635-7.593-13.128-7.593-22.483 0-11.147 4.103-20.144 12.3-27 8.2-6.85 19.538-10.28 34.014-10.28 12.943-.002 24.086 2.176 33.44 6.532zM1288.46 155.457V25.93h29.596v129.527h-29.597zM1419.71 105.49V25.93h29.593v79.37c0 16.912-4.735 29.817-14.218 38.723s-22.294 13.354-38.43 13.354c-15.89 0-28.638-4.42-38.245-13.26-9.61-8.84-14.415-21.33-14.415-37.47V25.93h29.597v80.523c0 16.015 7.684 24.02 23.063 24.02 15.368 0 23.056-8.327 23.056-24.982zM1473.327 155.457V25.93h32.478l30.168 53.618c4.23 7.562 7.91 14.638 11.053 21.233 3.135 6.6 5.152 11.244 6.053 13.935l1.535 4.228c-1.28-9.48-1.92-22.61-1.92-39.396V25.93h29.593v129.527h-32.473l-30.943-53.617c-4.098-6.917-7.72-13.74-10.857-20.466-3.138-6.727-5.285-11.69-6.44-14.894l-1.532-4.804c1.92 11.53 2.88 24.918 2.88 40.163v53.616h-29.596zM1637.057 131.818h50.732v23.64h-80.526V25.93h79.75v23.64h-49.957v29.4h44.578v23.448h-44.578v29.4zM1795.78 155.457l-7.874-26.52h-45.354l-7.876 26.52h-30.94l43.235-129.526h37.28l43.242 129.527h-31.712zm-46.117-50.35h31.132l-1.344-4.61c-3.717-12.557-6.76-23.257-9.128-32.096s-3.816-14.538-4.326-17.103l-.77-3.84c-1.023 7.048-5.762 24.726-14.22 53.04l-1.343 4.61z"/>
  </g>
  <circle fill="#E6E7E8" cx="1211.706" cy="248.372" r="133.155"/>
  <path fill="#EDEEEF" d="M1248.908 163.21c-3.217.55-6.42-1.618-8.05-4.444-1.636-2.826-2.018-6.185-2.26-9.44-.216-2.93-.24-6.19 1.68-8.413 1.265-1.466 3.158-2.204 4.99-2.826 7.937-2.688 16.27-4.2 24.646-4.473 1.26-.04 2.56-.047 3.73.422 1.714.686 2.88 2.27 3.875 3.826 3.297 5.155 5.752 10.846 7.237 16.782.8 3.195 1.32 6.525.807 9.778-.514 3.25-2.182 6.44-4.977 8.18-3.93 2.45-9.006 1.59-13.488.434-1.897-.488-3.942-1.125-5.036-2.75-.43-.635-.68-1.386-1.156-1.988-1.337-1.685-3.844-1.637-5.994-1.697-2.15-.06-4.78-.81-5.184-2.92"/>
  <ellipse transform="rotate(42.682 1292.89 344.206)" fill="#E6E7E8" cx="1292.834" cy="344.188" rx="13.821" ry="19.604"/>
  <ellipse transform="rotate(35.6 1293.634 345.14)" fill="#969696" cx="1293.685" cy="345.21" rx="7.723" ry="11.856"/>
  <path fill="#444749" d="M1300.584 335.566c-1.246-.892-2.81-1.157-4.473-.895.78.144 1.505.44 2.146.896 3.467 2.483 3.19 8.81-.623 14.135-2.44 3.412-5.737 5.574-8.705 6.04 3.435.63 7.928-1.7 11.037-6.04 3.81-5.324 4.087-11.65.62-14.134z"/>
  <path fill="#E6E7E8" d="M1073.3 233.57c-4.026-8.946-1.804-19.33 4.966-23.19s15.52.257 19.546 9.204c4.026 8.946 1.802 19.33-4.967 23.192-6.77 3.862-15.52-.258-19.546-9.205z"/>
  <path fill="#969696" d="M1077.88 231.765c-3.132-4.96-2.787-11.07.77-13.645 3.558-2.578 8.98-.645 12.114 4.315 3.133 4.96 2.788 11.07-.77 13.646-3.557 2.577-8.98.645-12.113-4.315z"/>
  <path opacity=".62" fill="#444749" d="M1089.996 236.08c1.28-.923 2.135-2.31 2.57-3.93-.436.687-.98 1.286-1.64 1.76-3.557 2.577-8.98.646-12.112-4.314-2.006-3.178-2.58-6.823-1.803-9.714-1.923 3.036-1.682 7.84.872 11.885 3.133 4.96 8.557 6.89 12.114 4.314z"/>
  <linearGradient id="a" gradientUnits="userSpaceOnUse" x1="1338.147" y1="284.295" x2="1330.793" y2="269.22">
    <stop offset="0" stop-color="#D8D9DA"/>
    <stop offset=".179" stop-color="#BAB9BA"/>
    <stop offset=".564" stop-color="#7E7D7E"/>
    <stop offset="1" stop-color="#444749"/>
  </linearGradient>
  <path fill="url(#a)" d="M1332.347 281.36s.814 6.423 7.276 4.89c0 0 .37-2.45 1.12-5.148.745-2.697-4.647-5.15-4.647-5.15l-3.187-.55"/>
  <ellipse transform="rotate(16.665 1339.58 256.932)" fill="#E6E7E8" cx="1339.624" cy="257.045" rx="17.893" ry="25.38"/>
  <ellipse transform="rotate(9.564 1341.356 258.004)" fill="#969696" cx="1341.192" cy="257.75" rx="9.998" ry="15.346"/>
  <path fill="#444749" d="M1343.744 242.612c-1.957-.33-3.925.25-5.713 1.5.988-.276 1.997-.346 3.003-.178 5.445.92 8.716 8.44 7.307 16.798-.902 5.354-3.51 9.742-6.698 11.97 4.354-1.216 8.26-6.48 9.407-13.293 1.41-8.36-1.862-15.878-7.306-16.798z"/>
  <ellipse transform="rotate(163.822 1138.26 186.908)" fill="#D3D3D3" cx="1138.273" cy="186.889" rx="2.241" ry="3.338"/>
  <path fill="#EDEEEF" d="M1248.345 323.643c-1.777.306-3.546-.893-4.448-2.453-.9-1.562-1.113-3.417-1.247-5.215-.12-1.62-.132-3.417.928-4.646.7-.81 1.745-1.218 2.757-1.562 4.385-1.485 8.986-2.32 13.61-2.47.696-.023 1.416-.026 2.062.232.946.38 1.592 1.254 2.14 2.113 1.822 2.847 3.18 5.99 4 9.27.44 1.763.73 3.603.445 5.4-.283 1.796-1.206 3.557-2.75 4.52-2.17 1.353-4.974.877-7.45.238-1.047-.268-2.176-.62-2.78-1.517-.236-.352-.375-.766-.638-1.098-.738-.933-2.123-.905-3.312-.94-1.188-.032-2.64-.446-2.862-1.613"/>
  <path fill="#E6E6E6" d="M1179.405 122.275c-1.595-2.16-4.88-1.75-7.488-1.113-6.862 1.67-13.82 3.38-19.976 6.84-4.458 2.508-8.47 5.92-13.317 7.56-.143.048-.287.095-.432.14-.502.812-1.116 1.563-1.782 2.22-2.064 2.03-4.63 3.495-6.68 5.54-2.703 2.695-4.363 6.246-6.74 9.23-3.603 4.518-8.693 7.557-13.667 10.5-.95.56-1.95 1.13-3.02 1.327-.65 1.164-1.245 2.36-1.77 3.592-.69 1.624-1.272 3.315-2.298 4.75-1.025 1.433-2.607 2.604-4.37 2.608-.487 0-.993-.082-1.45.09-1 .377-1.19 1.683-1.283 2.75-.344 3.926-1.585 7.772-3.602 11.157-1.128 1.896-2.507 3.672-3.242 5.75-.737 2.08-.694 4.626.813 6.235l.55-.17c4.855-4.91 9.125-10.4 12.695-16.312 2.234-3.704 4.22-7.61 7.125-10.816 2.127-2.348 4.695-4.26 6.9-6.535 4.45-4.584 7.312-10.514 11.744-15.112 7.39-7.667 18.378-10.896 26.17-18.158 3.592-3.348 6.625-7.627 11.22-9.363 4.132-1.56 8.742-.746 13.122-1.3.408-.05.89-.174 1.018-.564.097-.29-.058-.602-.24-.848z"/>
  <path fill="#FFF" d="M1122.988 152.69c2.377-2.982 4.037-6.533 6.74-9.23 2.05-2.042 4.615-3.507 6.68-5.538.666-.657 1.28-1.408 1.783-2.22-2.772.884-5.884 1.43-7.643 3.715-.786 1.02-1.195 2.28-1.908 3.352-1.18 1.774-3.084 2.9-4.878 4.05-7.044 4.52-13.41 10.43-17.464 17.698 1.07-.197 2.07-.767 3.022-1.328 4.975-2.94 10.066-5.98 13.668-10.5z"/>
  <path fill="#EDEEEF" d="M1125.564 168.25c-2.22 2.394-6.08 2.618-9.095 1.365-3.016-1.25-5.36-3.685-7.53-6.124-1.953-2.195-3.954-4.766-3.78-7.7.112-1.932 1.168-3.67 2.246-5.278 4.667-6.958 10.364-13.223 16.85-18.53.977-.8 2.004-1.592 3.22-1.933 1.776-.5 3.668.05 5.402.682 5.75 2.088 11.16 5.116 15.948 8.927 2.576 2.05 5.014 4.377 6.584 7.27 1.568 2.897 2.18 6.443 1.02 9.524-1.63 4.333-6.184 6.736-10.448 8.543-1.8.762-3.813 1.5-5.668.875-.728-.244-1.383-.688-2.127-.875-2.085-.526-4.047 1.036-5.792 2.296-1.742 1.26-4.29 2.26-5.892.828"/>
  <path fill="#E6E7E8" d="M1252.718 121.03c4.478 1.9 8.954 3.805 13.43 5.707 3.966 1.684 7.93 3.37 11.82 5.223 2.085.992 4.15 2.036 6.08 3.305 4.422 2.912 8.04 6.953 12.58 9.678 2.245 1.346 4.703 2.362 6.758 3.983 2.927 2.31 4.817 5.668 7.392 8.364 2.52 2.64 5.696 4.642 7.938 7.525 1.627 2.1 2.69 4.572 3.997 6.884 1.218 2.148 2.653 4.167 3.893 6.304 2.093 3.607 3.598 7.52 5.094 11.41 1.194 3.103 2.403 6.296 2.382 9.62-11.415-12.154-22.373-24.74-32.84-37.72-7.39-9.168-14.748-18.726-24.715-24.993-4.387-2.757-9.174-4.806-13.936-6.842-2.755-1.18-5.532-2.363-8.46-2.996-.65-.14-1.316-.256-1.906-.564-.65-.34-1.165-.89-1.664-1.428l-2.775-2.994c2.104-.713 4.372-.934 6.574-.638M1278.938 362.662c-2.198.122-3.79 2.033-5.368 3.568-5.67 5.522-13.836 7.43-21.57 9.112l-10.648 2.318c-15.217 3.313-30.87 6.64-46.24 4.132-8.614-1.405-16.82-4.604-24.948-7.78l-22.688-8.865c-6.332-2.473-12.777-5.015-18.047-9.312-5.626-4.59-9.556-10.897-14.562-16.157-3.47-3.646-7.46-6.79-10.767-10.59-6.307-7.253-9.774-16.48-13.118-25.494-6.126-16.515-12.294-33.197-14.646-50.653-.576-4.272-.82-8.986 1.667-12.51 2.484-3.524 8.734-4.406 10.8-.62.557 1.017.73 2.194.91 3.34 4.364 27.854 18.515 53.07 32.418 77.597 2.864 5.05 5.802 10.194 10.126 14.067 2.826 2.532 6.16 4.44 9.015 6.94 3.056 2.676 5.503 5.985 8.57 8.645 4.99 4.325 11.368 6.72 17.774 8.314 35.37 8.807 72.475-4.57 108.85-2.23 1.194.076 2.465.198 3.4.943 1.527 1.217 1.472 3.736.262 5.27s-3.23 2.212-5.173 2.38"/>
  <path opacity=".1" fill="#B5AC78" d="M1121.283 295.723c1.01 8.723 2.146 17.803 6.963 25.146 1.598 2.437 3.562 4.61 5.557 6.734 4.826 5.137 9.89 10.052 15.17 14.722 5.314 4.7 11.08 9.274 17.946 11.057 8.94 2.323 20.107.254 26.037 7.335 1.09 1.304 1.994 2.917 3.57 3.55 1.195.482 2.54.29 3.813.094l19.967-3.093c3.158-.49 6.934-.766 8.998 1.676.16-8.296-3.764-16.576-10.286-21.706-4.13-3.247-9.855-6.502-9.36-11.73.376-3.966 4.354-6.557 5.96-10.205.43-.978.628-2.256-.14-3-.49-.478-1.228-.573-1.907-.665-13.563-1.85-24.91-12.26-38.533-13.577-4.27-.414-8.67.085-12.783-1.128-4.11-1.214-7.994-4.96-7.355-9.2-6.626.322-13.467.01-19.54-2.657s-11.276-8.095-12.113-14.676c-2.98 2.948-1.855 7.89-.677 11.91 1.18 4.02 1.84 9.195-1.56 11.644"/>
  <path fill="#E6E6E6" d="M1338.342 294.695l-.76 4.216c.967-1.077.64-2.74.76-4.215z"/>
  <path fill="#E6E6E6" d="M1338.774 287.667c-1.406-.786-3.116-.71-4.72-.594-.204 2.37-3.078 3.497-5.455 3.505-2.38.008-4.944-.518-7.008.666-2.464 1.416-3.112 4.598-4.512 7.07-2.062 3.65-5.935 5.88-9.794 7.514-3.86 1.635-7.95 2.883-11.344 5.343-.73.527-1.45 1.154-1.72 2.01-.233.74-.093 1.54.062 2.298.943 4.625 2.4 9.23 5.093 13.106 2.69 3.876 6.75 6.975 11.41 7.72.708-.347 1.398-.73 2.075-1.133-.573-2.415.125-5.12 1.863-6.905 1.805-1.858 4.46-2.648 6.416-4.344 1.085-.94 1.92-2.124 2.745-3.298 2.508-3.57 5.02-7.142 7.526-10.713 1.008-1.432 2.016-2.867 2.81-4.423 1.084-2.12 1.745-4.45 1.96-6.823-.027-.073-.05-.145-.078-.215l.164-1.467c0 .56-.033 1.122-.086 1.682.25.633.48 1.272.695 1.917.817-3.08 1.49-6.206 2.085-9.302l-.448 2.48c.094-.317.23-.617.44-.886.33-.42.796-.717 1.116-1.144.963-1.294.112-3.28-1.294-4.063z"/>
  <path fill="#E6E6E6" d="M1338.514 293.76c-.09.3-.144.61-.172.935l.172-.935z"/>
  <path fill="#FFF" d="M1336.104 298.448c.03.07.05.143.078.215.053-.56.086-1.12.086-1.682l-.164 1.468z"/>
  <path fill="#E6E6E6" d="M1334.223 305.486c-.795 1.556-1.803 2.99-2.81 4.422-2.508 3.57-5.02 7.142-7.526 10.713-.824 1.174-1.66 2.36-2.744 3.3-1.957 1.696-4.61 2.486-6.416 4.344-1.738 1.785-2.437 4.49-1.863 6.906 2.862-1.707 5.438-3.9 7.552-6.478.85-1.035 1.628-2.13 2.51-3.136.872-.993 1.84-1.895 2.753-2.85 5.788-6.062 9.024-13.93 11.198-22.125-.215-.644-.445-1.283-.695-1.916-.216 2.37-.877 4.702-1.96 6.822z"/>
  <path opacity=".1" fill="#B5AC78" d="M1316.146 273.64c1.712-.358 2.933 1.577 3.597 3.194l12.89 31.348c1.617 3.93 3.258 7.975 3.363 12.225.105 4.25-1.66 8.82-5.393 10.857-2.446 1.333-5.354 1.423-8.138 1.483-5.386.112-11.602-.146-14.914-4.393-4.61-5.908-.207-14.83-2.692-21.9-.697-1.986-1.918-3.737-2.96-5.564-2.572-4.495-4.138-9.858-2.87-14.878 2.092-8.282 11.275-13.023 19.813-13.308"/>
  <path fill="#28A8E0" d="M1228.69 37.79c-1.965-9.2-7.91-16.842-15.885-21.148-.08.053-.236.115-.233.166l2.252 44.317c.367.096.383.22.576.33 2.897-.095 5.717.204 8.41.846 3.814-5.518 5.908-12.282 5.54-19.493-.085-1.714-.31-3.388-.66-5.016z"/>
  <linearGradient id="b" gradientUnits="userSpaceOnUse" x1="1357.612" y1="-286.372" x2="1368.853" y2="-286.372" gradientTransform="rotate(-2.922 8019.12 3097.818)">
    <stop offset="0" stop-color="#338AA9"/>
    <stop offset="1" stop-color="#3082A0"/>
  </linearGradient>
  <path fill="url(#b)" d="M1198.512 39.324c.084 1.64-.167 3.34-.08 5.054.366 7.21 3.17 13.728 7.523 18.83-9.16 2.304-10.163 10.046-10.163 10.046-3.155-10.57 2.72-33.93 2.72-33.93z"/>
  <linearGradient id="c" gradientUnits="userSpaceOnUse" x1="-3351.563" y1="-286.75" x2="-3340.32" y2="-286.75" gradientTransform="rotate(177.088 -1055.592 228.852)">
    <stop offset="0" stop-color="#338AA9"/>
    <stop offset="1" stop-color="#3082A0"/>
  </linearGradient>
  <path fill="url(#c)" d="M1228.592 37.794c.084 1.642.506 3.306.592 5.02.367 7.21-1.76 13.98-5.574 19.496 9.348 1.365 11.13 8.965 11.13 8.965 2.07-10.837-6.148-33.48-6.148-33.48z"/>
  <path fill="#25A1CC" d="M1198.646 39.318c1.02-9.353 6.173-17.56 13.67-22.653.083.045.253.09.256.142l2.252 44.317c-.355.134-.365.258-.547.388-2.893.2-5.67.783-8.287 1.694-4.352-5.103-7.123-11.62-7.49-18.83-.086-1.715-.035-3.403.146-5.058z"/>
  <path opacity=".53" fill="#276577" d="M1198.433 44.378c-.088-1.713.163-3.414.08-5.054 0 0-.527 2.34-1.24 5.875 0 .01.036.02.036.032.354 7.023 3.014 13.382 7.172 18.424.472-.165.94-.316 1.465-.447-4.353-5.104-7.15-11.62-7.514-18.832z"/>
  <path fill="#BCE1EE" d="M1212.44 25.393c-3.034 2.167-5.67 4.846-7.77 7.915 2.747.618 5.62.885 8.57.734.028 0 .058-.003.087-.004l.094-.003c.01 0 .026-.003.026-.003l-.44-8.678c-.36.018-.377.026-.565.04z"/>
  <path fill="#FFF" d="M1213.64 34.02c2.95-.15 5.782-.705 8.45-1.595v-.002c-2.398-2.84-5.378-5.235-8.618-7.084-.126.005-.104 0-.465.016v-.003s.03 0 0 0c-.03.002 0 0 0 0l.44 8.678s.057-.002.087-.005c.036 0 .068 0 .107-.004z"/>
  <ellipse transform="rotate(5.126 1197.498 167.358)" fill="#444749" cx="1198.158" cy="167.547" rx="7.722" ry="11.495"/>
  <path fill="#3C3E3F" d="M1198.62 176.91c-4.247-.38-7.232-5.815-6.665-12.138.21-2.343.88-4.475 1.852-6.218-1.766 1.956-3.036 4.908-3.342 8.304-.565 6.323 2.42 11.757 6.667 12.14 2.673.238 5.21-1.585 6.866-4.545-1.523 1.686-3.412 2.63-5.377 2.457z"/>
  <ellipse transform="rotate(-180 1231.39 166.464)" fill="#444749" cx="1231.394" cy="166.449" rx="7.722" ry="11.494"/>
  <path fill="#444749" d="M1205.125 183.892c-.437 5.26 3.617 9.888 9.053 10.338 5.438.45 10.197-3.45 10.632-8.708.437-5.26-3.735-2.817-9.17-3.267-5.438-.45-10.08-3.624-10.515 1.637z"/>
  <path fill="#3C3E3F" d="M1232.537 176.366c-4.265-.013-7.71-5.167-7.692-11.516.008-2.948.767-5.625 1.996-7.656-1.91 2.088-3.158 5.44-3.168 9.235-.016 6.348 3.428 11.504 7.69 11.514 2.286.006 4.337-1.473 5.757-3.818-1.284 1.406-2.867 2.245-4.583 2.24z"/>
  <ellipse transform="rotate(173.88 1230.886 160.636)" fill="#D3D3D3" cx="1230.874" cy="160.606" rx="2.243" ry="3.337"/>
  <ellipse transform="rotate(173.72 1199.175 161.664)" fill="#D3D3D3" cx="1199.175" cy="161.688" rx="2.242" ry="3.338"/>
  <circle fill="#E6E7E8" cx="1929.572" cy="249.176" r="133.154"/>
  <ellipse transform="rotate(42.686 2010.626 344.972)" fill="#E6E7E8" cx="2010.7" cy="344.992" rx="13.821" ry="19.604"/>
  <ellipse transform="rotate(35.59 2011.426 345.983)" fill="#969696" cx="2011.55" cy="346.013" rx="7.723" ry="11.855"/>
  <path fill="#444749" d="M2018.45 336.37c-1.247-.892-2.81-1.157-4.473-.895.777.144 1.504.437 2.145.896 3.466 2.483 3.19 8.81-.62 14.135-2.442 3.41-5.742 5.574-8.71 6.04 3.436.63 7.932-1.7 11.038-6.04 3.81-5.324 4.087-11.652.62-14.134z"/>
  <path fill="#E6E7E8" d="M1791.165 234.374c-4.025-8.947-1.803-19.33 4.966-23.192 6.772-3.862 15.52.26 19.546 9.207 4.027 8.944 1.804 19.33-4.965 23.19-6.768 3.863-15.52-.26-19.545-9.206z"/>
  <path fill="#969696" d="M1795.746 232.57c-3.132-4.96-2.787-11.07.77-13.647 3.56-2.576 8.98-.645 12.113 4.315 3.13 4.96 2.788 11.07-.772 13.647-3.556 2.576-8.98.644-12.112-4.316z"/>
  <path opacity=".62" fill="#444749" d="M1807.862 236.885c1.278-.926 2.133-2.312 2.57-3.934-.438.69-.983 1.288-1.64 1.763-3.557 2.576-8.982.646-12.113-4.314-2.007-3.18-2.58-6.825-1.803-9.715-1.923 3.034-1.683 7.84.87 11.883 3.134 4.96 8.557 6.895 12.115 4.317z"/>
  <linearGradient id="d" gradientUnits="userSpaceOnUse" x1="2056.014" y1="285.1" x2="2048.659" y2="270.022">
    <stop offset="0" stop-color="#D8D9DA"/>
    <stop offset=".179" stop-color="#BAB9BA"/>
    <stop offset=".564" stop-color="#7E7D7E"/>
    <stop offset="1" stop-color="#444749"/>
  </linearGradient>
  <path fill="url(#d)" d="M2050.213 282.163s.814 6.424 7.276 4.892c0 0 .37-2.452 1.118-5.15.747-2.697-4.647-5.146-4.647-5.146l-3.185-.554"/>
  <ellipse transform="rotate(16.665 2057.283 257.646)" fill="#E6E7E8" cx="2057.489" cy="257.848" rx="17.892" ry="25.38"/>
  <ellipse transform="rotate(9.564 2059.53 258.964)" fill="#969696" cx="2059.059" cy="258.553" rx="9.997" ry="15.348"/>
  <path fill="#444749" d="M2061.61 243.417c-1.957-.33-3.926.25-5.713 1.5.986-.276 1.996-.347 3.002-.177 5.444.918 8.715 8.438 7.305 16.796-.9 5.355-3.51 9.744-6.697 11.973 4.354-1.22 8.258-6.482 9.407-13.296 1.41-8.36-1.862-15.88-7.306-16.797z"/>
  <ellipse transform="rotate(163.854 1856.054 187.686)" fill="#D3D3D3" cx="1856.139" cy="187.692" rx="2.242" ry="3.337"/>
  <path fill="#EDEEEF" d="M1960.3 161.2c-3.217.55-6.42-1.616-8.053-4.442-1.634-2.827-2.016-6.185-2.256-9.44-.217-2.93-.242-6.19 1.678-8.414 1.266-1.465 3.158-2.203 4.993-2.825 7.938-2.69 16.272-4.202 24.645-4.475 1.26-.04 2.56-.047 3.73.422 1.715.685 2.882 2.27 3.877 3.827 3.297 5.153 5.75 10.845 7.236 16.782.8 3.194 1.32 6.525.807 9.776-.513 3.253-2.183 6.442-4.977 8.184-3.93 2.45-9.005 1.59-13.49.433-1.893-.49-3.937-1.126-5.032-2.75-.43-.636-.68-1.388-1.157-1.99-1.337-1.684-3.844-1.636-5.994-1.696-2.15-.06-4.78-.81-5.184-2.923M1979.275 300.18c-1.778.305-3.546-.89-4.447-2.452-.902-1.563-1.114-3.417-1.247-5.215-.12-1.618-.132-3.418.928-4.646.697-.81 1.744-1.217 2.757-1.56 4.383-1.485 8.986-2.32 13.61-2.47.697-.025 1.415-.028 2.06.23.948.38 1.593 1.255 2.144 2.115 1.818 2.847 3.174 5.99 3.997 9.27.44 1.764.73 3.603.445 5.4-.284 1.795-1.206 3.556-2.75 4.518-2.17 1.353-4.975.876-7.45.24-1.046-.27-2.177-.623-2.78-1.518-.237-.35-.375-.767-.64-1.1-.737-.93-2.122-.903-3.31-.937-1.187-.033-2.642-.447-2.863-1.615"/>
  <path fill="#E6E6E6" d="M1897.27 123.078c-1.594-2.16-4.88-1.748-7.49-1.113-6.856 1.672-13.816 3.38-19.972 6.84-4.46 2.51-8.472 5.92-13.32 7.56-.142.048-.286.095-.432.142-.502.81-1.115 1.562-1.78 2.218-2.065 2.03-4.634 3.494-6.682 5.54-2.702 2.694-4.362 6.246-6.74 9.23-3.603 4.518-8.692 7.56-13.668 10.498-.95.562-1.95 1.13-3.02 1.33-.65 1.162-1.246 2.358-1.77 3.593-.69 1.622-1.273 3.314-2.3 4.75-1.023 1.432-2.608 2.603-4.37 2.608-.485.002-.99-.083-1.446.09-1.005.376-1.192 1.683-1.286 2.75-.343 3.926-1.582 7.77-3.598 11.158-1.13 1.895-2.508 3.67-3.244 5.75-.737 2.08-.695 4.626.813 6.235l.55-.172c4.856-4.91 9.126-10.398 12.694-16.312 2.235-3.702 4.222-7.61 7.126-10.815 2.126-2.35 4.695-4.26 6.9-6.534 4.448-4.585 7.31-10.514 11.744-15.11 7.39-7.667 18.377-10.898 26.168-18.16 3.595-3.348 6.626-7.627 11.222-9.36 4.13-1.562 8.742-.75 13.122-1.3.408-.052.89-.177 1.018-.567.095-.29-.057-.602-.24-.85z"/>
  <path fill="#FFF" d="M1840.854 153.494c2.378-2.982 4.038-6.535 6.74-9.23 2.048-2.045 4.616-3.507 6.682-5.54.665-.655 1.278-1.408 1.78-2.217-2.77.88-5.884 1.428-7.643 3.712-.785 1.02-1.196 2.28-1.907 3.353-1.18 1.773-3.084 2.902-4.877 4.052-7.046 4.517-13.41 10.428-17.464 17.696 1.07-.197 2.07-.766 3.02-1.328 4.975-2.938 10.065-5.98 13.668-10.498z"/>
  <path fill="#EDEEEF" d="M1838.098 169.053c-2.218 2.394-6.078 2.618-9.092 1.367-3.017-1.25-5.362-3.686-7.532-6.125-1.953-2.194-3.953-4.766-3.78-7.7.113-1.933 1.17-3.67 2.247-5.277 4.668-6.958 10.366-13.225 16.85-18.53.977-.8 2.006-1.595 3.22-1.935 1.78-.498 3.67.053 5.403.683 5.75 2.09 11.16 5.117 15.947 8.928 2.577 2.05 5.016 4.377 6.586 7.273 1.568 2.895 2.18 6.442 1.02 9.523-1.632 4.333-6.186 6.734-10.45 8.542-1.8.764-3.812 1.5-5.667.877-.728-.245-1.384-.69-2.127-.878-2.085-.526-4.048 1.037-5.79 2.296-1.746 1.26-4.29 2.263-5.895.83"/>
  <path fill="#E6E7E8" d="M1970.584 121.834c4.48 1.902 8.953 3.804 13.43 5.708 3.966 1.683 7.932 3.37 11.82 5.22 2.082.995 4.15 2.038 6.078 3.307 4.424 2.91 8.04 6.952 12.582 9.675 2.244 1.346 4.703 2.363 6.758 3.985 2.925 2.31 4.814 5.668 7.39 8.364 2.522 2.64 5.697 4.64 7.937 7.525 1.63 2.098 2.69 4.57 4 6.88 1.214 2.152 2.653 4.17 3.89 6.306 2.093 3.608 3.598 7.52 5.096 11.412 1.193 3.102 2.403 6.295 2.382 9.618-11.415-12.154-22.373-24.74-32.84-37.72-7.39-9.166-14.748-18.724-24.717-24.992-4.385-2.758-9.17-4.806-13.935-6.843-2.755-1.177-5.53-2.363-8.46-2.995-.65-.14-1.315-.256-1.903-.564-.65-.337-1.167-.89-1.666-1.427-.927-1-1.853-1.995-2.777-2.994 2.103-.714 4.373-.933 6.573-.64M1996.803 363.465c-2.197.123-3.79 2.033-5.367 3.57-5.67 5.52-13.838 7.43-21.57 9.112-3.55.773-7.1 1.544-10.648 2.318-15.217 3.31-30.872 6.64-46.242 4.13-8.613-1.405-16.816-4.603-24.947-7.778l-22.69-8.866c-6.332-2.474-12.778-5.014-18.044-9.31-5.626-4.592-9.556-10.9-14.563-16.16-3.473-3.645-7.462-6.787-10.766-10.587-6.31-7.255-9.775-16.482-13.12-25.497-6.126-16.515-12.294-33.195-14.646-50.653-.574-4.272-.817-8.986 1.668-12.51 2.484-3.523 8.735-4.407 10.802-.622.556 1.02.728 2.198.906 3.344 4.366 27.854 18.517 53.068 32.42 77.597 2.863 5.05 5.802 10.194 10.126 14.066 2.826 2.532 6.16 4.44 9.016 6.943 3.05 2.674 5.5 5.982 8.57 8.643 4.986 4.324 11.365 6.72 17.772 8.313 35.37 8.81 72.475-4.57 108.85-2.23 1.194.076 2.463.2 3.397.945 1.528 1.217 1.475 3.736.266 5.27-1.21 1.532-3.23 2.21-5.175 2.38"/>
  <path opacity=".1" fill="#B5AC78" d="M1827.457 277.52c-1.478 8.654-2.94 17.69-.377 26.088.85 2.787 2.124 5.426 3.443 8.024 3.188 6.286 6.67 12.424 10.423 18.39 3.78 6.004 8.03 12.012 14.122 15.65 7.93 4.74 19.227 5.89 22.93 14.355.682 1.558 1.095 3.358 2.43 4.407 1.01.796 2.355.994 3.63 1.162 6.68.878 13.356 1.76 20.033 2.64 3.172.418 6.872 1.212 8.168 4.134 2.482-7.917 1.04-16.964-3.78-23.72-3.048-4.276-7.63-9.006-5.686-13.884 1.475-3.704 6.02-5.073 8.584-8.125.687-.814 1.237-1.986.71-2.915-.338-.598-1.02-.896-1.644-1.175-12.497-5.583-20.466-18.76-33.17-23.85-3.982-1.596-8.346-2.354-11.95-4.674-3.61-2.32-6.28-7.005-4.48-10.896-6.45-1.55-12.928-3.77-18.008-8.036-5.08-4.266-8.548-10.936-7.506-17.488-3.686 1.992-3.993 7.05-3.99 11.24 0 4.19-.816 9.343-4.768 10.738"/>
  <path fill="#E6E6E6" d="M2056.21 315.078l-.764 4.214c.97-1.08.64-2.74.763-4.214zM2056.64 288.47c-1.406-.785-3.115-.71-4.722-.594-.2 2.37-3.075 3.498-5.455 3.507-2.376.008-4.94-.518-7.005.666-2.464 1.415-3.11 4.595-4.51 7.07-2.064 3.648-5.936 5.877-9.795 7.51-3.86 1.636-7.952 2.886-11.347 5.345-.726.526-1.448 1.153-1.718 2.007-.234.74-.092 1.54.062 2.298.943 4.626 2.4 9.23 5.092 13.107 2.693 3.877 6.752 6.975 11.413 7.722.71-.347 1.396-.73 2.073-1.134-.572-2.416.128-5.123 1.864-6.908 1.805-1.856 4.458-2.648 6.415-4.344 1.086-.938 1.92-2.124 2.745-3.297 2.508-3.57 5.02-7.143 7.526-10.713 1.005-1.43 2.014-2.866 2.81-4.423 1.08-2.12 1.744-4.45 1.96-6.822-.026-.07-.05-.145-.08-.216l.164-1.466c0 .562-.032 1.123-.084 1.682.247.635.48 1.273.693 1.92.82-3.083 1.49-6.21 2.087-9.305l-.45 2.483c.095-.32.23-.62.44-.89.33-.418.8-.714 1.117-1.143.962-1.292.11-3.28-1.295-4.063zM2056.377 314.143c-.09.298-.142.61-.168.935l.167-.935z"/>
  <path fill="#FFF" d="M2053.97 318.83c.03.07.053.144.08.215.05-.56.083-1.12.083-1.682l-.164 1.466z"/>
  <path fill="#E6E6E6" d="M2052.088 306.29c-.795 1.557-1.804 2.993-2.81 4.423-2.507 3.57-5.018 7.142-7.525 10.713-.825 1.173-1.66 2.36-2.745 3.297-1.957 1.696-4.61 2.488-6.415 4.344-1.736 1.786-2.437 4.493-1.864 6.908 2.862-1.707 5.437-3.902 7.552-6.48.85-1.035 1.626-2.127 2.51-3.135.87-.992 1.838-1.895 2.75-2.85 5.792-6.063 9.027-13.93 11.2-22.125-.212-.646-.445-1.285-.692-1.92-.217 2.373-.88 4.703-1.962 6.825z"/>
  <path opacity=".1" fill="#B5AC78" d="M2039.84 283.498c1.208-.306 2.07 1.333 2.54 2.702 3.036 8.85 6.07 17.7 9.107 26.55 1.142 3.33 2.3 6.754 2.374 10.353.075 3.6-1.17 7.47-3.808 9.194-1.728 1.13-3.78 1.207-5.75 1.256-3.804.096-8.194-.122-10.536-3.72-3.257-5.003-.147-12.56-1.902-18.548-.493-1.68-1.354-3.165-2.09-4.71-1.818-3.808-2.924-8.35-2.028-12.602 1.477-7.014 7.965-11.03 13.996-11.27"/>
  <ellipse transform="rotate(6.858 1915.726 331.395)" fill="#444749" cx="1916.05" cy="331.477" rx="7.722" ry="11.496"/>
  <path fill="#3C3E3F" d="M1916.23 340.85c-4.234-.51-7.053-6.032-6.296-12.335.28-2.333 1.015-4.446 2.04-6.158-1.824 1.9-3.185 4.814-3.59 8.2-.76 6.302 2.06 11.824 6.294 12.334 2.664.32 5.255-1.424 6.997-4.332-1.57 1.637-3.487 2.528-5.446 2.292z"/>
  <ellipse transform="rotate(-177.794 1949.198 330.405)" fill="#444749" cx="1949.286" cy="330.381" rx="7.723" ry="11.495"/>
  <path fill="#3C3E3F" d="M1950.072 340.332c-4.262-.165-7.52-5.44-7.276-11.784.114-2.946.97-5.594 2.27-7.58-1.983 2.02-3.352 5.324-3.497 9.116-.245 6.344 3.012 11.62 7.273 11.784 2.283.087 4.385-1.318 5.89-3.61-1.337 1.357-2.947 2.138-4.66 2.074z"/>
  <ellipse transform="rotate(175.948 1948.137 333.61)" fill="#D3D3D3" cx="1948.145" cy="333.57" rx="2.242" ry="3.337"/>
  <ellipse transform="rotate(175.415 1918.028 332.653)" fill="#D3D3D3" cx="1918.011" cy="332.642" rx="2.242" ry="3.338"/>
  <path fill="#444749" d="M1933.2 358.484c-2.078-1.6-5.137-1.618-7.258-.088-1.534 1.106-.058 3.68 1.496 2.56 1.367-.987 2.936-.938 4.267.087.642.494 1.658.1 2.027-.53.448-.765.108-1.537-.53-2.03z"/>
  <path fill="#28A8E0" d="M695.166 165.45c.497-9.396-3.256-18.323-9.834-24.557-.092.032-.257.05-.268.1l-9.363 43.375c.33.188.312.31.47.467 2.822.663 5.47 1.687 7.902 3.008 5.12-4.335 8.9-10.322 10.424-17.38.36-1.675.58-3.352.67-5.013z"/>
  <linearGradient id="e" gradientUnits="userSpaceOnUse" x1="-74.228" y1="-29.283" x2="-62.984" y2="-29.283" gradientTransform="rotate(12.177 -663.727 3499.857)">
    <stop offset="0" stop-color="#338AA9"/>
    <stop offset="1" stop-color="#3082A0"/>
  </linearGradient>
  <path fill="url(#e)" d="M665.627 159.073c-.346 1.606-1.03 3.182-1.393 4.86-1.524 7.056-.516 14.077 2.36 20.138-9.444-.158-12.43 7.055-12.43 7.055-.292-11.03 11.463-32.052 11.463-32.052z"/>
  <linearGradient id="f" gradientUnits="userSpaceOnUse" x1="-1920.058" y1="-29.494" x2="-1908.816" y2="-29.494" gradientTransform="rotate(-167.82 -603.638 -33.35)">
    <stop offset="0" stop-color="#338AA9"/>
    <stop offset="1" stop-color="#3082A0"/>
  </linearGradient>
  <path fill="url(#f)" d="M695.068 165.428c-.348 1.607-.374 3.323-.736 5-1.523 7.06-5.34 13.038-10.458 17.373 8.668 3.75 8.41 11.553 8.41 11.553 4.82-9.924 2.784-33.925 2.784-33.925z"/>
  <path fill="#25A1CC" d="M665.76 159.103c3.42-8.764 10.53-15.347 19.094-18.314.07.065.222.152.21.202l-9.362 43.376c-.38.036-.42.154-.63.23-2.843-.56-5.68-.72-8.442-.52-2.873-6.06-3.852-13.075-2.328-20.132.36-1.676.852-3.294 1.457-4.843z"/>
  <path opacity=".53" fill="#276577" d="M664.234 163.932c.36-1.677 1.047-3.253 1.392-4.858 0 0-1.116 2.12-2.726 5.348-.002.013.03.03.025.04-1.482 6.876-.572 13.708 2.13 19.658.498-.036.99-.06 1.53-.05-2.874-6.06-3.875-13.08-2.35-20.138z"/>
  <path fill="#BCE1EE" d="M682.705 149.248c-3.496 1.302-6.74 3.205-9.564 5.62 2.493 1.31 5.194 2.317 8.083 2.94.027.007.057.012.086.017.027.006.062.016.093.022.006 0 .023.004.023.004l1.833-8.492c-.355-.078-.373-.074-.555-.11z"/>
  <path fill="#FFF" d="M681.613 157.892c2.887.624 5.766.824 8.575.66v-.003c-1.576-3.368-3.83-6.457-6.477-9.083-.122-.028-.1-.027-.452-.105v-.003s.03.007-.002 0c-.03-.007.002 0 .002 0l-1.833 8.492s.055.01.085.018c.035.006.066.014.103.022z"/>
  <circle fill="#E6E7E8" cx="871.747" cy="248.604" r="133.155"/>
  <ellipse transform="rotate(42.686 952.84 344.403)" fill="#E6E7E8" cx="952.874" cy="344.42" rx="13.821" ry="19.604"/>
  <ellipse transform="rotate(35.59 953.797 345.516)" fill="#969696" cx="953.725" cy="345.44" rx="7.722" ry="11.855"/>
  <path fill="#444749" d="M960.625 335.798c-1.246-.893-2.808-1.157-4.473-.896.777.144 1.503.437 2.144.896 3.468 2.482 3.19 8.81-.62 14.133-2.442 3.412-5.74 5.575-8.708 6.042 3.435.63 7.93-1.7 11.036-6.04 3.81-5.324 4.09-11.652.62-14.134z"/>
  <path fill="#E6E7E8" d="M733.34 233.8c-4.026-8.944-1.803-19.33 4.967-23.19 6.768-3.864 15.52.26 19.545 9.206s1.802 19.33-4.967 23.19c-6.77 3.864-15.52-.26-19.545-9.205z"/>
  <path fill="#969696" d="M737.92 231.996c-3.132-4.96-2.787-11.07.772-13.645 3.557-2.576 8.98-.645 12.11 4.315 3.135 4.96 2.79 11.07-.77 13.646-3.556 2.578-8.98.647-12.11-4.314z"/>
  <path opacity=".62" fill="#444749" d="M750.036 236.312c1.278-.924 2.136-2.312 2.57-3.93-.435.685-.98 1.283-1.64 1.76-3.557 2.577-8.98.645-12.11-4.315-2.01-3.177-2.58-6.824-1.803-9.714-1.926 3.034-1.685 7.84.87 11.883 3.132 4.96 8.556 6.894 12.113 4.316z"/>
  <linearGradient id="g" gradientUnits="userSpaceOnUse" x1="998.188" y1="284.527" x2="990.832" y2="269.45">
    <stop offset="0" stop-color="#D8D9DA"/>
    <stop offset=".179" stop-color="#BAB9BA"/>
    <stop offset=".564" stop-color="#7E7D7E"/>
    <stop offset="1" stop-color="#444749"/>
  </linearGradient>
  <path fill="url(#g)" d="M992.39 281.59s.812 6.423 7.274 4.892c0 0 .372-2.452 1.12-5.147.745-2.698-4.648-5.15-4.648-5.15l-3.187-.55"/>
  <path fill="#E6E7E8" d="M1016.805 262.406c-4.018 13.427-14.95 22.017-24.416 19.183-9.47-2.834-13.884-16.016-9.868-29.444 4.02-13.427 14.95-22.017 24.418-19.182 9.466 2.83 13.883 16.013 9.865 29.442z"/>
  <ellipse transform="rotate(9.564 1000.924 258.032)" fill="#969696" cx="1001.234" cy="257.98" rx="9.998" ry="15.348"/>
  <path fill="#444749" d="M1003.783 242.843c-1.955-.33-3.924.25-5.71 1.5.985-.277 1.994-.347 3.002-.178 5.444.918 8.716 8.438 7.306 16.796-.902 5.356-3.51 9.745-6.696 11.975 4.352-1.217 8.256-6.48 9.406-13.296 1.41-8.358-1.86-15.878-7.307-16.797z"/>
  <ellipse transform="rotate(-4.726 800.866 191.755)" fill="#444749" cx="801.069" cy="191.969" rx="7.723" ry="11.494"/>
  <path fill="#3C3E3F" d="M803.127 201.114c-4.25.35-8.12-4.492-8.643-10.82-.195-2.342.1-4.56.76-6.442-1.403 2.23-2.15 5.355-1.87 8.755.523 6.326 4.394 11.17 8.644 10.817 2.677-.22 4.86-2.45 5.986-5.65-1.21 1.92-2.908 3.178-4.877 3.34z"/>
  <ellipse transform="rotate(-175.274 834.304 190.868)" fill="#444749" cx="834.307" cy="190.872" rx="7.722" ry="11.495"/>
  <path fill="#3C3E3F" d="M834.654 200.848c-4.252-.352-7.27-5.766-6.75-12.092.244-2.938 1.215-5.546 2.604-7.473-2.07 1.928-3.584 5.17-3.896 8.953-.525 6.326 2.496 11.74 6.746 12.093 2.277.188 4.44-1.126 6.044-3.35-1.396 1.3-3.04 2.01-4.748 1.868z"/>
  <ellipse transform="rotate(163.842 832.975 186.01)" fill="#D3D3D3" cx="832.977" cy="186.023" rx="2.243" ry="3.338"/>
  <ellipse transform="rotate(163.836 798.287 187.116)" fill="#D3D3D3" cx="798.314" cy="187.12" rx="2.242" ry="3.338"/>
  <path fill="#444749" d="M800.623 235.876c12.318 5.29 27.47 3.413 36.258-7.573 3.444-4.3 4.203-10.234 0-14.435-3.563-3.566-10.97-4.327-14.434 0-.65.813-1.312 1.535-2.042 2.273-.375.38-1.193.89-.32.305-.832.56-1.738 1.098-2.658 1.507 1.27-.568-.4.063-.91.204-.325.09-2.528.523-.8.298-.84.108-1.703.108-2.546.088-.684-.02-2.23-.366-.82-.04-.346-.082-3.018-.94-1.423-.255-5.063-2.172-10.943-1.505-13.967 3.663-2.517 4.3-1.43 11.78 3.663 13.966z"/>
  <g fill="#1F110C">
    <path d="M822.098 214.367c.152-.117.36-.28.504-.423.492-.5.95-1 1.4-1.517-.574.397-1.102.873-1.556 1.442-.17.21-.345.404-.517.605l.168-.108zM802.82 233.678c-5.092-2.187-6.177-9.665-3.662-13.965.182-.31.373-.6.573-.875-1.065.757-2.008 1.77-2.77 3.073-2.517 4.3-1.43 11.78 3.663 13.966 11.898 5.11 26.437 3.53 35.336-6.48-8.972 8.015-22.175 8.992-33.14 4.282zM821.904 214.505l-.002.002.09-.063-.088.06z"/>
  </g>
  <path fill="#EDEEEF" d="M885.315 180.918c-3.218.55-6.42-1.617-8.052-4.442-1.633-2.828-2.018-6.187-2.258-9.44-.217-2.933-.243-6.19 1.678-8.414 1.265-1.466 3.158-2.205 4.992-2.826 7.936-2.69 16.268-4.2 24.643-4.472 1.262-.04 2.56-.047 3.73.42 1.715.685 2.882 2.27 3.877 3.826 3.297 5.153 5.752 10.848 7.238 16.782.8 3.195 1.32 6.525.808 9.778-.512 3.252-2.184 6.44-4.978 8.18-3.93 2.452-9.004 1.59-13.487.435-1.896-.488-3.94-1.126-5.035-2.75-.43-.636-.68-1.387-1.155-1.987-1.337-1.686-3.844-1.64-5.993-1.698-2.15-.06-4.782-.81-5.186-2.922M877.496 333.578c-1.777.304-3.546-.893-4.447-2.453-.903-1.562-1.115-3.417-1.25-5.215-.118-1.618-.133-3.417.93-4.646.698-.81 1.743-1.217 2.757-1.56 4.382-1.485 8.985-2.32 13.61-2.47.696-.025 1.413-.028 2.062.232.944.377 1.59 1.253 2.14 2.113 1.82 2.846 3.176 5.99 3.996 9.27.44 1.763.73 3.602.445 5.4-.28 1.795-1.203 3.555-2.748 4.52-2.17 1.35-4.972.874-7.448.237-1.05-.27-2.177-.622-2.78-1.518-.24-.353-.376-.768-.64-1.1-.738-.93-2.124-.905-3.31-.937-1.19-.033-2.642-.447-2.863-1.615"/>
  <path fill="#E6E6E6" d="M839.445 122.506c-1.595-2.16-4.88-1.75-7.488-1.113-6.86 1.67-13.818 3.38-19.975 6.84-4.46 2.507-8.473 5.92-13.318 7.56-.144.048-.29.094-.432.14-.502.81-1.117 1.563-1.784 2.22-2.063 2.03-4.63 3.496-6.68 5.54-2.703 2.693-4.362 6.245-6.74 9.23-3.603 4.517-8.693 7.557-13.667 10.498-.95.563-1.95 1.13-3.02 1.33-.648 1.163-1.246 2.358-1.77 3.592-.69 1.622-1.272 3.316-2.3 4.75-1.022 1.434-2.605 2.603-4.37 2.608-.486 0-.99-.082-1.446.09-1.003.378-1.192 1.684-1.284 2.753-.344 3.925-1.583 7.77-3.6 11.156-1.13 1.893-2.508 3.67-3.244 5.75-.736 2.077-.693 4.625.814 6.234l.55-.17c4.855-4.91 9.127-10.4 12.695-16.313 2.234-3.702 4.222-7.61 7.125-10.814 2.128-2.35 4.694-4.26 6.903-6.534 4.445-4.584 7.31-10.514 11.74-15.11 7.393-7.668 18.38-10.897 26.17-18.16 3.594-3.348 6.626-7.626 11.22-9.36 4.133-1.56 8.743-.75 13.124-1.3.407-.05.89-.175 1.018-.566.095-.292-.057-.604-.24-.85z"/>
  <path fill="#FFF" d="M783.027 152.922c2.38-2.984 4.038-6.536 6.74-9.23 2.05-2.043 4.618-3.508 6.68-5.54.668-.656 1.283-1.408 1.785-2.218-2.773.882-5.885 1.428-7.645 3.715-.785 1.018-1.195 2.278-1.907 3.35-1.18 1.773-3.085 2.903-4.878 4.052-7.045 4.517-13.407 10.428-17.464 17.696 1.07-.198 2.07-.767 3.022-1.328 4.975-2.94 10.066-5.98 13.667-10.498z"/>
  <path fill="#EDEEEF" d="M788.262 172.12c-2.22 2.393-6.08 2.618-9.094 1.365-3.015-1.252-5.36-3.685-7.53-6.124-1.954-2.195-3.955-4.767-3.782-7.7.115-1.933 1.17-3.67 2.248-5.278 4.666-6.958 10.364-13.223 16.848-18.53.98-.798 2.007-1.593 3.22-1.933 1.78-.5 3.67.05 5.403.683 5.752 2.088 11.16 5.116 15.95 8.926 2.575 2.05 5.013 4.378 6.582 7.272 1.57 2.896 2.18 6.44 1.02 9.522-1.63 4.333-6.185 6.736-10.446 8.544-1.802.762-3.813 1.5-5.667.876-.73-.244-1.383-.688-2.128-.876-2.087-.526-4.047 1.037-5.792 2.296-1.742 1.258-4.29 2.26-5.893.83"/>
  <path fill="#E6E7E8" d="M912.76 121.26l13.43 5.71c3.964 1.684 7.93 3.368 11.818 5.22 2.084.994 4.15 2.038 6.08 3.307 4.424 2.912 8.038 6.953 12.58 9.677 2.246 1.346 4.703 2.362 6.758 3.984 2.928 2.31 4.816 5.668 7.39 8.365 2.522 2.64 5.7 4.642 7.94 7.524 1.627 2.1 2.688 4.57 3.997 6.884 1.217 2.15 2.654 4.17 3.895 6.306 2.09 3.607 3.596 7.52 5.094 11.41 1.19 3.104 2.402 6.296 2.382 9.62-11.415-12.153-22.374-24.74-32.84-37.72-7.392-9.166-14.75-18.724-24.718-24.993-4.387-2.757-9.17-4.806-13.935-6.843-2.755-1.178-5.53-2.362-8.46-2.997-.65-.14-1.315-.257-1.904-.563-.65-.34-1.165-.89-1.666-1.428l-2.776-2.995c2.104-.71 4.373-.932 6.574-.638M938.98 362.894c-2.198.124-3.792 2.032-5.37 3.568-5.67 5.52-13.836 7.43-21.57 9.114-3.55.77-7.098 1.543-10.648 2.318-15.217 3.31-30.87 6.638-46.24 4.13-8.614-1.407-16.818-4.604-24.948-7.78-7.563-2.957-15.125-5.912-22.688-8.866-6.33-2.475-12.778-5.015-18.045-9.312-5.625-4.59-9.555-10.9-14.56-16.158-3.473-3.646-7.463-6.788-10.767-10.587-6.31-7.253-9.777-16.48-13.12-25.495-6.126-16.515-12.295-33.196-14.647-50.652-.576-4.274-.817-8.988 1.666-12.512 2.486-3.523 8.736-4.405 10.802-.62.558 1.018.73 2.195.91 3.342 4.362 27.854 18.514 53.068 32.42 77.597 2.86 5.05 5.798 10.193 10.122 14.066 2.826 2.532 6.162 4.44 9.016 6.94 3.053 2.675 5.504 5.984 8.568 8.645 4.99 4.324 11.367 6.72 17.773 8.316 35.372 8.807 72.477-4.57 108.854-2.23 1.19.075 2.462.2 3.396.944 1.528 1.215 1.473 3.734.264 5.27-1.21 1.532-3.23 2.21-5.174 2.38"/>
  <path opacity=".1" fill="#B5AC78" d="M769.6 281.492c-.758 8.75-1.464 17.873 1.786 26.03 1.08 2.707 2.566 5.23 4.095 7.712 3.702 6 7.68 11.828 11.917 17.46 4.266 5.67 8.998 11.306 15.37 14.426 8.296 4.065 19.65 4.275 24.04 12.403.81 1.495 1.37 3.255 2.788 4.192 1.074.71 2.43.792 3.716.854 6.728.322 13.456.645 20.183.97 3.195.152 6.948.637 8.482 3.443 1.816-8.098-.372-16.995-5.735-23.328-3.394-4.007-8.35-8.342-6.82-13.365 1.165-3.812 5.58-5.552 7.882-8.807.617-.87 1.07-2.084.468-2.966-.388-.567-1.09-.808-1.737-1.035-12.918-4.526-21.952-16.996-35.035-21.016-4.1-1.26-8.51-1.653-12.296-3.666-3.786-2.014-6.84-6.46-5.366-10.486-6.557-1.012-13.197-2.687-18.613-6.516s-9.426-10.188-8.93-16.804c-3.508 2.29-3.396 7.358-3.045 11.534.35 4.175-.04 9.376-3.86 11.096"/>
  <path fill="#E6E6E6" d="M998.383 294.93l-.762 4.212c.97-1.08.642-2.74.763-4.213z"/>
  <path fill="#E6E6E6" d="M998.814 287.896c-1.406-.784-3.115-.708-4.72-.592-.204 2.37-3.077 3.497-5.455 3.505-2.38.007-4.944-.52-7.007.665-2.466 1.416-3.112 4.597-4.51 7.07-2.065 3.65-5.937 5.878-9.796 7.512-3.86 1.635-7.952 2.885-11.346 5.345-.726.526-1.448 1.152-1.718 2.007-.233.738-.094 1.538.063 2.297.94 4.625 2.4 9.23 5.092 13.105 2.69 3.877 6.752 6.977 11.41 7.722.71-.347 1.397-.73 2.075-1.134-.572-2.416.127-5.12 1.862-6.906 1.807-1.858 4.46-2.648 6.418-4.346 1.083-.938 1.92-2.124 2.743-3.297l7.528-10.712c1.004-1.43 2.012-2.866 2.807-4.42 1.084-2.122 1.744-4.454 1.963-6.825-.028-.07-.053-.144-.08-.214l.162-1.468c0 .563-.032 1.123-.082 1.682.247.635.48 1.273.693 1.92.817-3.083 1.49-6.21 2.083-9.304l-.45 2.482c.096-.32.233-.62.443-.89.33-.42.797-.715 1.116-1.143.962-1.292.11-3.278-1.296-4.064z"/>
  <path fill="#E6E6E6" d="M998.553 293.992c-.088.297-.144.61-.17.937l.17-.938z"/>
  <path fill="#FFF" d="M996.144 298.68c.028.07.053.143.08.213.05-.56.083-1.12.083-1.682l-.163 1.47z"/>
  <path fill="#E6E6E6" d="M994.262 305.718c-.795 1.556-1.803 2.992-2.807 4.42l-7.528 10.714c-.823 1.173-1.66 2.36-2.743 3.297-1.96 1.697-4.61 2.487-6.418 4.345-1.735 1.786-2.435 4.49-1.862 6.906 2.864-1.705 5.437-3.9 7.552-6.477.85-1.036 1.628-2.13 2.51-3.137.872-.992 1.84-1.894 2.752-2.85 5.79-6.062 9.027-13.93 11.2-22.124-.214-.646-.445-1.285-.692-1.92-.22 2.373-.88 4.705-1.964 6.826z"/>
  <path opacity=".1" fill="#B5AC78" d="M976.186 273.87c1.712-.358 2.932 1.58 3.597 3.194 4.298 10.45 8.593 20.9 12.89 31.35 1.617 3.932 3.258 7.974 3.363 12.226.105 4.25-1.66 8.817-5.393 10.854-2.444 1.335-5.353 1.426-8.138 1.483-5.386.114-11.6-.145-14.915-4.392-4.608-5.908-.207-14.83-2.69-21.9-.7-1.985-1.918-3.736-2.964-5.563-2.57-4.495-4.136-9.858-2.867-14.878 2.09-8.283 11.273-13.025 19.81-13.308"/>
  <circle fill="#E6E7E8" cx="1571.982" cy="248.604" r="133.154"/>
  <ellipse transform="rotate(42.686 1653.095 344.43)" fill="#E6E7E8" cx="1653.109" cy="344.42" rx="13.821" ry="19.603"/>
  <ellipse transform="rotate(35.59 1654.097 345.547)" fill="#969696" cx="1653.96" cy="345.44" rx="7.722" ry="11.855"/>
  <path fill="#444749" d="M1660.86 335.798c-1.246-.893-2.808-1.157-4.472-.896.777.144 1.503.437 2.145.896 3.467 2.482 3.19 8.81-.623 14.133-2.44 3.412-5.738 5.575-8.705 6.042 3.434.63 7.93-1.7 11.034-6.04 3.81-5.324 4.09-11.652.62-14.134z"/>
  <path fill="#E6E7E8" d="M1433.576 233.8c-4.026-8.944-1.803-19.33 4.966-23.19 6.77-3.864 15.52.26 19.546 9.206 4.026 8.947 1.804 19.33-4.967 23.19-6.767 3.864-15.518-.26-19.544-9.205z"/>
  <path fill="#969696" d="M1438.156 231.996c-3.13-4.96-2.787-11.07.77-13.645 3.56-2.576 8.983-.645 12.114 4.315 3.13 4.96 2.787 11.07-.77 13.646-3.558 2.578-8.98.647-12.114-4.314z"/>
  <path opacity=".62" fill="#444749" d="M1450.273 236.312c1.277-.924 2.136-2.312 2.57-3.93-.435.685-.983 1.283-1.64 1.76-3.558 2.577-8.98.645-12.114-4.315-2.007-3.177-2.58-6.824-1.802-9.714-1.924 3.034-1.683 7.84.87 11.883 3.134 4.96 8.556 6.894 12.115 4.316z"/>
  <linearGradient id="h" gradientUnits="userSpaceOnUse" x1="1698.425" y1="284.527" x2="1691.07" y2="269.451">
    <stop offset="0" stop-color="#D8D9DA"/>
    <stop offset=".179" stop-color="#BAB9BA"/>
    <stop offset=".564" stop-color="#7E7D7E"/>
    <stop offset="1" stop-color="#444749"/>
  </linearGradient>
  <path fill="url(#h)" d="M1692.624 281.59s.814 6.423 7.276 4.892c0 0 .37-2.452 1.12-5.147.745-2.698-4.647-5.15-4.647-5.15l-3.188-.55"/>
  <path fill="#E6E7E8" d="M1717.04 262.406c-4.018 13.427-14.948 22.017-24.416 19.183-9.466-2.834-13.883-16.016-9.865-29.444 4.018-13.427 14.95-22.017 24.416-19.182 9.468 2.83 13.883 16.013 9.865 29.442z"/>
  <ellipse transform="rotate(9.564 1701.912 258.17)" fill="#969696" cx="1701.47" cy="257.98" rx="9.998" ry="15.348"/>
  <path fill="#444749" d="M1704.02 242.843c-1.957-.33-3.925.25-5.713 1.5.987-.277 1.997-.347 3.002-.178 5.445.918 8.716 8.438 7.307 16.796-.902 5.356-3.512 9.745-6.698 11.975 4.353-1.217 8.258-6.48 9.407-13.296 1.408-8.358-1.862-15.878-7.306-16.797z"/>
  <ellipse transform="rotate(163.836 1498.5 187.117)" fill="#D3D3D3" cx="1498.549" cy="187.12" rx="2.242" ry="3.339"/>
  <path fill="#EDEEEF" d="M1609.186 163.44c-3.217.55-6.42-1.617-8.052-4.443-1.633-2.827-2.017-6.185-2.257-9.44-.217-2.93-.242-6.19 1.677-8.414 1.267-1.465 3.16-2.203 4.993-2.825 7.936-2.69 16.268-4.2 24.644-4.474 1.26-.042 2.562-.047 3.73.42 1.715.687 2.882 2.272 3.877 3.828 3.297 5.154 5.753 10.845 7.238 16.782.8 3.194 1.32 6.524.807 9.776-.515 3.253-2.183 6.442-4.977 8.184-3.93 2.45-9.006 1.588-13.49.433-1.895-.488-3.94-1.125-5.034-2.75-.43-.635-.678-1.387-1.154-1.988-1.337-1.686-3.844-1.64-5.994-1.698-2.15-.06-4.78-.81-5.185-2.924M1608.622 323.875c-1.778.303-3.547-.893-4.448-2.455-.903-1.56-1.114-3.416-1.246-5.213-.12-1.62-.135-3.42.926-4.647.7-.81 1.745-1.217 2.758-1.56 4.384-1.485 8.985-2.32 13.61-2.47.695-.022 1.416-.026 2.062.232.945.378 1.59 1.253 2.14 2.113 1.822 2.846 3.178 5.99 3.998 9.268.44 1.765.73 3.604.446 5.4-.282 1.796-1.206 3.557-2.748 4.52-2.172 1.353-4.975.878-7.45.238-1.046-.268-2.177-.62-2.782-1.517-.236-.353-.374-.766-.64-1.1-.736-.93-2.122-.903-3.31-.937-1.188-.033-2.64-.447-2.862-1.613"/>
  <path fill="#E6E6E6" d="M1539.682 122.506c-1.595-2.16-4.882-1.75-7.49-1.113-6.858 1.67-13.817 3.38-19.974 6.84-4.46 2.507-8.47 5.92-13.32 7.56-.14.048-.285.094-.43.14-.502.81-1.116 1.563-1.782 2.22-2.064 2.03-4.633 3.496-6.68 5.54-2.703 2.693-4.364 6.245-6.742 9.23-3.602 4.517-8.692 7.557-13.667 10.498-.95.563-1.95 1.13-3.02 1.33-.65 1.163-1.248 2.358-1.77 3.592-.69 1.622-1.273 3.316-2.3 4.75-1.023 1.434-2.607 2.603-4.37 2.608-.486 0-.992-.082-1.448.09-1.004.378-1.19 1.684-1.284 2.753-.343 3.925-1.584 7.77-3.6 11.156-1.13 1.893-2.508 3.67-3.244 5.75-.736 2.077-.693 4.625.814 6.234l.55-.17c4.856-4.91 9.126-10.4 12.694-16.313 2.236-3.702 4.223-7.61 7.126-10.814 2.128-2.35 4.695-4.26 6.9-6.534 4.45-4.584 7.312-10.514 11.744-15.11 7.393-7.668 18.38-10.897 26.17-18.16 3.59-3.348 6.627-7.626 11.22-9.36 4.13-1.56 8.742-.75 13.123-1.3.408-.05.89-.175 1.018-.566.098-.292-.057-.604-.238-.85z"/>
  <path fill="#FFF" d="M1483.264 152.922c2.378-2.984 4.04-6.536 6.74-9.23 2.05-2.043 4.617-3.508 6.682-5.54.666-.656 1.28-1.408 1.782-2.218-2.773.882-5.883 1.428-7.643 3.715-.786 1.018-1.196 2.278-1.91 3.35-1.178 1.773-3.08 2.903-4.875 4.052-7.044 4.517-13.407 10.428-17.463 17.696 1.07-.198 2.07-.767 3.02-1.328 4.974-2.94 10.065-5.98 13.667-10.498z"/>
  <path fill="#EDEEEF" d="M1485.842 168.48c-2.222 2.394-6.08 2.618-9.095 1.366s-5.36-3.686-7.53-6.124c-1.954-2.197-3.953-4.768-3.78-7.7.113-1.933 1.168-3.67 2.246-5.28 4.668-6.957 10.365-13.224 16.85-18.53.977-.8 2.005-1.594 3.22-1.933 1.778-.5 3.667.05 5.403.68 5.75 2.09 11.16 5.12 15.947 8.93 2.575 2.05 5.015 4.377 6.583 7.272 1.57 2.896 2.182 6.442 1.02 9.523-1.63 4.333-6.184 6.735-10.447 8.542-1.803.764-3.814 1.502-5.67.877-.728-.244-1.383-.688-2.126-.877-2.086-.524-4.048 1.037-5.792 2.296-1.743 1.26-4.288 2.263-5.895.83"/>
  <path fill="#E6E7E8" d="M1612.994 121.26l13.432 5.71c3.965 1.684 7.93 3.368 11.82 5.22 2.08.994 4.148 2.038 6.078 3.307 4.423 2.912 8.04 6.953 12.58 9.677 2.246 1.346 4.703 2.362 6.76 3.984 2.924 2.31 4.814 5.668 7.39 8.365 2.52 2.64 5.696 4.642 7.936 7.524 1.63 2.1 2.69 4.57 4 6.884 1.216 2.15 2.654 4.17 3.894 6.306 2.09 3.607 3.597 7.52 5.092 11.41 1.193 3.104 2.404 6.296 2.382 9.62-11.414-12.153-22.37-24.74-32.838-37.72-7.393-9.166-14.75-18.724-24.72-24.993-4.384-2.757-9.17-4.806-13.934-6.843-2.755-1.178-5.53-2.362-8.46-2.997-.65-.14-1.316-.257-1.903-.563-.654-.34-1.167-.89-1.667-1.428l-2.777-2.995c2.103-.71 4.372-.932 6.575-.638M1639.214 362.894c-2.198.124-3.79 2.032-5.368 3.568-5.67 5.52-13.837 7.43-21.57 9.114-3.55.77-7.1 1.543-10.647 2.318-15.218 3.31-30.872 6.638-46.242 4.13-8.615-1.407-16.82-4.604-24.95-7.78-7.56-2.957-15.124-5.912-22.686-8.866-6.332-2.475-12.778-5.015-18.046-9.312-5.626-4.59-9.556-10.9-14.562-16.158-3.472-3.646-7.46-6.788-10.766-10.587-6.307-7.253-9.776-16.48-13.12-25.495-6.125-16.515-12.293-33.196-14.645-50.652-.577-4.274-.82-8.988 1.665-12.512 2.483-3.523 8.735-4.405 10.802-.62.555 1.018.728 2.195.907 3.342 4.363 27.854 18.516 53.068 32.42 77.597 2.86 5.05 5.8 10.193 10.125 14.066 2.825 2.532 6.16 4.44 9.014 6.94 3.054 2.675 5.503 5.984 8.57 8.645 4.988 4.324 11.365 6.72 17.774 8.316 35.37 8.807 72.474-4.57 108.85-2.23 1.194.075 2.465.2 3.398.944 1.527 1.215 1.474 3.734.263 5.27-1.208 1.532-3.226 2.21-5.172 2.38"/>
  <path opacity=".1" fill="#B5AC78" d="M1481.56 295.954c1.01 8.723 2.147 17.804 6.964 25.146 1.6 2.437 3.56 4.61 5.556 6.734 4.825 5.136 9.89 10.052 15.172 14.723 5.313 4.7 11.077 9.274 17.945 11.057 8.94 2.32 20.108.252 26.038 7.337 1.09 1.303 1.993 2.916 3.57 3.55 1.194.478 2.54.29 3.812.092l19.965-3.09c3.16-.49 6.937-.766 9 1.676.16-8.298-3.764-16.577-10.287-21.707-4.128-3.246-9.852-6.5-9.355-11.727.374-3.968 4.352-6.558 5.958-10.207.428-.978.625-2.258-.14-3-.492-.478-1.228-.572-1.908-.666-13.56-1.85-24.91-12.257-38.533-13.575-4.27-.414-8.67.085-12.78-1.13-4.114-1.213-7.996-4.96-7.358-9.2-6.627.32-13.468.012-19.54-2.657-6.076-2.667-11.276-8.094-12.115-14.675-2.978 2.948-1.852 7.89-.675 11.91 1.18 4.02 1.84 9.196-1.56 11.644"/>
  <path fill="#E6E6E6" d="M1698.62 294.93l-.765 4.212c.97-1.08.643-2.74.764-4.213z"/>
  <path fill="#E6E6E6" d="M1699.05 287.896c-1.404-.784-3.115-.708-4.722-.592-.2 2.37-3.074 3.497-5.454 3.505-2.377.007-4.942-.52-7.005.665-2.464 1.416-3.112 4.597-4.512 7.07-2.063 3.65-5.935 5.878-9.795 7.512-3.86 1.635-7.95 2.885-11.346 5.345-.726.526-1.448 1.152-1.718 2.007-.235.738-.094 1.538.06 2.297.944 4.625 2.402 9.23 5.094 13.105 2.692 3.877 6.75 6.977 11.41 7.722.71-.347 1.397-.73 2.074-1.134-.572-2.416.128-5.12 1.864-6.906 1.806-1.858 4.46-2.648 6.418-4.346 1.083-.938 1.917-2.124 2.742-3.297 2.51-3.57 5.017-7.142 7.526-10.712 1.005-1.43 2.015-2.866 2.81-4.42 1.084-2.122 1.744-4.454 1.96-6.825-.026-.07-.05-.144-.078-.214l.166-1.468c0 .563-.036 1.123-.088 1.682.248.635.48 1.273.694 1.92.817-3.083 1.49-6.21 2.086-9.304l-.45 2.482c.096-.32.23-.62.443-.89.33-.42.798-.715 1.116-1.143.96-1.292.11-3.278-1.296-4.064z"/>
  <path fill="#E6E6E6" d="M1698.788 293.992c-.087.297-.143.61-.17.937l.17-.938z"/>
  <path fill="#FFF" d="M1696.38 298.68c.03.07.053.143.08.213.05-.56.087-1.12.087-1.682l-.166 1.47z"/>
  <path fill="#E6E6E6" d="M1694.5 305.718c-.796 1.556-1.806 2.992-2.81 4.42-2.51 3.572-5.02 7.143-7.527 10.714-.825 1.173-1.66 2.36-2.742 3.297-1.958 1.697-4.61 2.487-6.417 4.345-1.736 1.786-2.437 4.49-1.864 6.906 2.863-1.705 5.437-3.9 7.552-6.477.85-1.036 1.626-2.13 2.512-3.137.868-.992 1.838-1.894 2.75-2.85 5.79-6.062 9.026-13.93 11.2-22.124-.214-.646-.446-1.285-.694-1.92-.217 2.373-.877 4.705-1.96 6.826z"/>
  <path opacity=".1" fill="#B5AC78" d="M1676.422 273.87c1.71-.358 2.933 1.58 3.598 3.194 4.295 10.45 8.593 20.9 12.89 31.35 1.614 3.932 3.257 7.974 3.362 12.226.106 4.25-1.66 8.817-5.393 10.854-2.446 1.335-5.354 1.426-8.14 1.483-5.385.114-11.598-.145-14.913-4.392-4.61-5.908-.208-14.83-2.692-21.9-.697-1.985-1.918-3.736-2.962-5.563-2.57-4.495-4.136-9.858-2.868-14.878 2.09-8.283 11.275-13.025 19.81-13.308"/>
  <path fill="#414042" d="M1123.763 146.82c1.794-1.148 3.697-2.276 4.877-4.05.713-1.073 1.122-2.333 1.908-3.353 1.76-2.287 4.87-2.83 7.644-3.714 1.05-1.697 1.608-3.652 1.1-5.544-.55-2.057-2.277-3.635-4.207-4.53-1.932-.893-4.07-1.205-6.18-1.507-2.55-.366-5.152-.73-7.688-.272-2.535.46-5.037 1.887-6.112 4.228l-23.532 26.91c3.028 3.39 6.627 6.27 10.6 8.48 1.056.585 2.188 1.14 3.394 1.13.25 0 .493-.033.733-.078 4.054-7.27 10.42-13.18 17.463-17.7zM1322.925 325.556c-.882 1.007-1.66 2.102-2.51 3.136-2.114 2.578-4.69 4.77-7.552 6.478.08.332.18.663.307.98 3.15.244 6.348.487 9.44-.157 2.903-.603 5.64-1.974 8.594-2.247.843-.077 1.73-.076 2.466-.498.797-.46 1.248-1.334 1.63-2.17 4.32-9.487 4.864-20.614 1.577-30.498-2.174 8.196-5.41 16.063-11.2 22.126-.91.956-1.88 1.857-2.752 2.85zM1841.63 147.626c1.792-1.15 3.696-2.278 4.876-4.052.71-1.074 1.122-2.333 1.907-3.354 1.76-2.285 4.872-2.83 7.643-3.712 1.053-1.698 1.61-3.653 1.102-5.546-.55-2.055-2.277-3.632-4.208-4.527-1.932-.894-4.072-1.208-6.18-1.51-2.55-.364-5.15-.727-7.687-.27-2.536.456-5.037 1.884-6.113 4.226l-23.53 26.91c3.027 3.392 6.626 6.27 10.6 8.48 1.053.586 2.187 1.137 3.393 1.13.25-.003.492-.035.734-.08 4.054-7.266 10.417-13.177 17.462-17.694z"/>
  <path fill="#FFF" d="M2040.792 326.36c-.885 1.008-1.66 2.1-2.51 3.137-2.116 2.576-4.69 4.77-7.554 6.48.08.33.18.66.308.978 3.15.246 6.35.488 9.44-.156 2.904-.604 5.64-1.977 8.593-2.248.842-.08 1.73-.076 2.464-.498.798-.46 1.25-1.333 1.632-2.17 4.316-9.488 4.865-20.614 1.576-30.497-2.174 8.194-5.41 16.062-11.2 22.124-.913.956-1.882 1.86-2.75 2.85zM783.803 147.053c1.793-1.15 3.7-2.28 4.878-4.05.713-1.074 1.123-2.334 1.908-3.353 1.76-2.287 4.87-2.833 7.645-3.715 1.052-1.697 1.607-3.653 1.1-5.545-.552-2.056-2.277-3.633-4.208-4.527-1.93-.895-4.07-1.207-6.18-1.51-2.55-.364-5.153-.728-7.687-.27-2.535.456-5.038 1.886-6.112 4.225l-23.533 26.91c3.03 3.392 6.63 6.27 10.604 8.48 1.052.586 2.186 1.14 3.39 1.13.25 0 .493-.034.734-.078 4.056-7.27 10.418-13.18 17.463-17.697z"/>
  <path fill="#414042" d="M982.966 325.787c-.883 1.008-1.66 2.1-2.51 3.137-2.116 2.576-4.69 4.77-7.553 6.478.078.333.18.66.31.98 3.148.245 6.346.488 9.438-.157 2.904-.603 5.64-1.976 8.593-2.246.845-.08 1.733-.077 2.466-.5.796-.458 1.248-1.332 1.63-2.17 4.318-9.485 4.865-20.613 1.578-30.497-2.174 8.196-5.41 16.062-11.2 22.125-.913.955-1.88 1.857-2.752 2.85zM1484.04 147.053c1.794-1.15 3.697-2.28 4.876-4.05.713-1.074 1.123-2.334 1.91-3.353 1.76-2.287 4.868-2.833 7.642-3.715 1.052-1.697 1.61-3.653 1.102-5.545-.552-2.056-2.278-3.633-4.21-4.527-1.93-.895-4.07-1.207-6.18-1.51-2.547-.364-5.15-.728-7.686-.27-2.536.456-5.037 1.886-6.113 4.225l-23.53 26.91c3.027 3.392 6.627 6.27 10.6 8.48 1.053.586 2.187 1.14 3.393 1.13.25 0 .493-.034.735-.078 4.055-7.27 10.418-13.18 17.462-17.697zM1683.203 325.787c-.886 1.008-1.662 2.1-2.512 3.137-2.114 2.576-4.687 4.77-7.552 6.478.078.333.18.66.31.98 3.148.245 6.348.488 9.438-.157 2.903-.603 5.64-1.976 8.594-2.246.843-.08 1.732-.077 2.465-.5.797-.458 1.25-1.332 1.63-2.17 4.318-9.485 4.866-20.613 1.578-30.497-2.174 8.196-5.41 16.062-11.2 22.125-.912.955-1.882 1.857-2.75 2.85z"/>
  <path fill="#F7941E" d="M1567.027 81.688c.08 1.97-.918-2.246-2.248-.52-1.332 1.725-3.084 3.26-4.846 4.77 1.7-.446 3.267-1.148 4.573-2.05l.333 1.442c.662-.37 1.245-.813 1.718-1.31.418.274.688.66.743 1.066.41-.236.703-.58.81-.95.597.317 1.143.686 1.617 1.095.44-.576.78-1.19 1.017-1.826.742.17 1.125.736 1.528 1.217.4.48 1.088.97 1.843.834-1.25-1.58-3.126-2.697-3.916-4.423-.304-.66-1.09-1.71-1.454-2.353-.7-1.235-.582 3.755-1.725 2.706"/>
  <path fill="#28A8E0" d="M1580.122 53.063c-1.966-9.2-7.914-16.843-15.89-21.15-.078.055-.234.116-.23.166l2.253 44.317c.366.097.382.22.574.33 2.898-.098 5.72.204 8.412.846 3.814-5.52 5.906-12.283 5.54-19.495-.087-1.713-.314-3.39-.66-5.015z"/>
  <linearGradient id="i" gradientUnits="userSpaceOnUse" x1="1707.815" y1="-253.267" x2="1719.057" y2="-253.267" gradientTransform="rotate(-2.922 8019.12 3097.818)">
    <stop offset="0" stop-color="#338AA9"/>
    <stop offset="1" stop-color="#3082A0"/>
  </linearGradient>
  <path fill="url(#i)" d="M1549.94 54.595v.002c.085 1.64-.166 3.34-.078 5.052.366 7.21 3.17 13.727 7.522 18.83-9.16 2.304-10.162 10.046-10.162 10.046-3.157-10.57 2.72-33.93 2.72-33.93z"/>
  <linearGradient id="j" gradientUnits="userSpaceOnUse" x1="-3701.766" y1="-253.645" x2="-3690.526" y2="-253.645" gradientTransform="rotate(177.088 -1055.592 228.852)">
    <stop offset="0" stop-color="#338AA9"/>
    <stop offset="1" stop-color="#3082A0"/>
  </linearGradient>
  <path fill="url(#j)" d="M1580.02 53.066c.086 1.64.508 3.306.595 5.02.366 7.21-1.762 13.978-5.573 19.496 9.345 1.365 11.127 8.963 11.127 8.963 2.067-10.835-6.15-33.48-6.15-33.48z"/>
  <path fill="#25A1CC" d="M1550.078 54.59c1.02-9.353 6.17-17.56 13.668-22.653.084.046.252.092.256.142l2.253 44.317c-.356.134-.365.257-.547.387-2.893.2-5.67.78-8.286 1.694-4.354-5.103-7.124-11.62-7.49-18.832-.087-1.712-.036-3.4.146-5.055z"/>
  <path opacity=".53" fill="#276577" d="M1549.862 59.65c-.088-1.714.163-3.413.08-5.053v-.002s-.528 2.34-1.24 5.876c.002.012.036.023.036.023.356 7.034 3.016 13.393 7.173 18.435.474-.166.943-.316 1.467-.447-4.354-5.102-7.148-11.62-7.515-18.83z"/>
  <path fill="#BCE1EE" d="M1563.872 40.664c-3.037 2.168-5.67 4.848-7.77 7.917 2.747.618 5.618.885 8.568.734.03-.002.06-.003.087-.006.03 0 .066 0 .096-.003h.023l-.44-8.678c-.362.017-.378.023-.564.037z"/>
  <path fill="#FFF" d="M1565.07 49.293c2.95-.15 5.78-.705 8.45-1.595l-.003-.003h.002c-2.398-2.84-5.378-5.235-8.62-7.084-.124.006-.103.002-.464.018v-.003h-.002c-.03.002.002 0 .002 0l.44 8.677.088-.006c.035 0 .068 0 .106-.003z"/>
  <path fill="#DCEAE9" d="M1568.388 98.406c-.08 1.215-.775 2.29-1.448 3.307-1.284 1.933-2.615 3.917-4.527 5.234-.294.2-.603.39-.938.505-.36.126-.744.17-1.113.258-1.14.272-2.125.963-3.08 1.638-.314.222-.638.453-.847.777-.084.127-.15.273-.266.37-.197.168-.48.168-.736.19-1.174.09-2.276.833-2.804 1.887 2.685.102 5.372.126 8.06.072.608-1.24 1.505-2.666 2.885-2.64.93.02 1.868.732 2.72.355.35-.155.6-.47.82-.78 2.17-3.098 2.6-7.338 1.09-10.808"/>
  <path fill="#B5BDC4" d="M1548.015 115.235l-.666 1.558c-.275.64-.538 1.417-.14 1.986.323.462.95.577 1.51.645 3.123.378 6.278.48 9.417.3 1.466-.08 2.975-.218 4.367.237.625.204 1.21.524 1.848.688.753.193 1.545.16 2.32.124 1.22-.053 2.438-.11 3.656-.164.708-.03 1.44-.07 2.084-.37.47-.22.874-.576 1.364-.754.488-.18 1.02-.17 1.538-.15 2.004.068 4.005.232 5.993.487.446.057.895.12 1.34.074.47-.047.92-.212 1.38-.324 2.642-.645 5.43.488 8.12.1.587-.086 1.258-.336 1.398-.91.185-.77-.75-1.354-1.542-1.388s-1.638.186-2.344-.175c-.528-.27-.853-.806-1.23-1.26-.377-.458-.922-.88-1.506-.774-.205.037-.392.14-.582.224-1.736.77-3.734.21-5.63.215-2.333.006-4.563.884-6.846 1.354-7.01 1.44-14.185-.98-21.334-1.296-1.45-.065-2.917-.044-4.336-.363"/>
  <path fill="#F1F2F2" d="M1567.9 96.565c.19-.124.355.19.365.417.08 1.883.048 3.77-.098 5.65.098.395-.034.806-.187 1.182-.524 1.316-1.287 2.537-2.24 3.584 1.024.638 2.55.23 3.116-.838.334-.628.343-1.373.346-2.086l.023-5.383c.003-.997-.095-2.183-.958-2.685"/>
  <path fill="#EFEDD0" d="M1568.968 97.677c.265.684.242 1.57.857 1.967.358.23.816.202 1.24.166-.164.34-.33.694-.327 1.072.003.376.227.78.598.856.135.03.283.013.406.08.188.106.224.364.178.575-.045.21-.152.406-.172.62-.044.498.388.91.824 1.158.436.248.937.435 1.227.843.122.173.198.375.332.54.485.59 1.478.442 2.057.942.037.033.074.07.09.12.027.08-.01.164-.053.235-.467.78-1.492.966-2.394 1.077-.104.014-.22.025-.316-.02-.205-.1-.22-.398-.387-.554-.3-.28-.82.05-1.184-.14-.415-.216-.36-.976-.816-1.088-.09-.022-.184-.013-.276-.013-.606 0-1.137-.47-1.395-1.02-.26-.55-.3-1.176-.336-1.784-.072-1.153-.14-2.304-.21-3.456-.043-.68-.084-1.357-.123-2.037M1573.278 117.68c1.328-.43 2.73.257 3.97.898 1.24.64 2.694 1.263 3.98.718.444-.19.825-.506 1.26-.715 1.137-.544 2.486-.3 3.688.078 1.203.375 2.408.878 3.666.816.976-.047 1.896-.432 2.797-.81.645-.716.378-1.955-.382-2.55-.76-.592-1.83-.633-2.76-.375-.65.182-1.268.5-1.938.59-.487.07-.983.017-1.476-.035l-6.627-.713c-.57-.062-1.15-.123-1.716-.022-.29.053-.574.146-.857.23-1.04.3-2.116.435-3.188.57-.028.592-.06 1.184-.09 1.774 1.285.383 2.852.703 3.817-.225"/>
  <path fill="#F1F2F2" d="M1556.446 111.88c.06-.664-.488-1.26-1.117-1.48-.628-.222-1.317-.16-1.98-.092-.115.012-.235.024-.334.086-.104.066-.168.177-.223.287-.328.645-.477 1.397-.315 2.1.164.707.67 1.346 1.355 1.576.147.05.31.085.417.197.143.146.148.37.206.564.22.745 1.177.978 1.943.864.77-.113 1.527-.44 2.29-.312.787.13 1.404.71 2.04 1.188.636.48 1.455.886 2.202.614.208-.362.08-.84-.184-1.162-.267-.323-.643-.528-1.003-.74-1.528-.903-2.897-2.073-4.028-3.443-.153-.187-.306-.378-.5-.52-.343-.245-.786-.313-1.12-.564M1569.2 111.387c-.434-.974.21-2.155 1.13-2.688.925-.535 2.038-.585 3.104-.623 1.154-.04 2.35-.074 3.416.37.356.146.69.345 1.052.468 1.703.577 3.9-.505 5.22.713.695.645.985 1.834 1.92 2.004.59.11 1.3-.252 1.753.144.214.187.283.486.333.767.168.956.243 1.927.22 2.897-.017.69-.187 1.52-.834 1.757-.28.103-.587.063-.882.024l-6.693-.9c-.81-.11-1.753-.175-2.318.413-.48.496-.56 1.354-1.177 1.66-.27.134-.59.126-.89.105-.965-.066-1.942-.24-2.788-.71-.846-.47-1.542-1.275-1.697-2.23-.087-.536-.003-1.104-.19-1.616-.19-.524-.638-.914-.886-1.414-.245-.5-.166-1.264.37-1.416"/>
  <path fill="#E7E7C8" d="M1569.923 112.516c.05-1.71-1.323-3.203-2.91-3.846-1.584-.643-3.35-.618-5.06-.584-.82.016-1.638.03-2.454.05-.362.005-.735.015-1.06.166-.447.205-.737.635-.997 1.05-.934 1.494-1.77 3.377-.978 4.954.35.69.964 1.204 1.427 1.826.462.622.766 1.483.39 2.16 1.368.286 2.768.41 4.167.372.987-.027 2.026-.153 2.834-.726.81-.573 1.287-1.716.824-2.592l2.084-.04c.133-.002.28-.01.37-.108.063-.068.082-.164.1-.255.216-1.165.432-2.33.646-3.495"/>
  <path fill="#EFEDD0" d="M1564.896 110.34c.563-1.096-.264-2.572.39-3.62.195-.313.5-.54.807-.74 1.354-.89 2.965-1.447 4.583-1.366 1.618.082 3.232.855 4.15 2.192.25.367.45.78.508 1.223.055.434-.026.882.062 1.312.118.583.543 1.185.267 1.712-.107.206-.305.347-.497.48l-1.354.947c-1.495 1.043-3.233 2.14-5.012 1.733-.514-.117-.99-.356-1.46-.592-.594-.3-1.2-.612-1.66-1.095-.46-.483-.75-1.18-.576-1.823"/>
  <path fill="#E5E5D6" d="M1572.91 116.703l-10.16.016c-.352 0-.71 0-1.04-.113-.642-.215-1.074-.798-1.466-1.348-.235-.335-.483-.708-.448-1.114.03-.327.237-.608.438-.87.566-.734 1.194-1.512 2.09-1.758.32-.088.68-.113.926-.337.573-.528-.016-1.5.177-2.257.244-.954 1.517-1.11 2.503-1.06 1.39.075 2.8.172 4.113.637 2.206.78 4.03 2.67 4.556 4.947.18.788.2 1.65-.176 2.365-.375.713-1.23 1.214-2.004.987"/>
  <path fill="#F1F2F2" d="M1569.173 115.466c.35 1.194-.47 2.485-1.565 3.074-1.096.59-2.394.636-3.638.625-3.418-.028-6.833-.393-10.18-1.083-.19-.04-.39-.085-.536-.21-.18-.158-.242-.407-.338-.626-.28-.63-.92-1.18-.793-1.856.092-.496.592-.827 1.088-.913.497-.087 1.004.012 1.505.056 1.76.156 3.5-.35 5.252-.556 1.754-.206 3.713-.044 4.984 1.183.362.35.68.79 1.158.946.522.173 1.082-.04 1.616-.172.534-.13 1.196-.135 1.526.306l-.08.595"/>
  <path fill="#E7E7C8" d="M1567.736 117.454c-.123-.39-.147-.81-.076-1.214.027-.142.066-.287.156-.4.43-.555 1.435.044 1.985-.39.16-.123.247-.313.37-.47.567-.72 1.772-.583 2.435.047.66.63.903 1.573 1.072 2.47.043.23.067.503-.104.66-.105.095-.257.117-.398.128-1.094.087-2.296-.17-3.218.42-.274.176-.514.422-.825.516-.524.16-1.1-.187-1.365-.665s-.286-1.053-.257-1.6"/>
  <path fill="#F1F2F2" d="M1565.8 119.447c-2.046.065-4.104-.12-6.106-.543-.32-.07-.67-.162-.858-.43-.25-.363-.076-.896.267-1.17.343-.278.8-.36 1.237-.414.52-.063 1.08-.093 1.53.176.165.1.318.24.51.26.367.042.618-.342.79-.665.448-.824 1.056-1.64 1.944-1.938.888-.3 2.07.17 2.204 1.1.384-.993.807-2.037 1.652-2.682.845-.646 2.254-.676 2.83.22.265.407.33.954.707 1.258.805.65 2.116-.384 3 .153.21.13.375.338.61.41.284.083.578-.058.862-.144 1.282-.395 2.804.515 3.065 1.83.354.143.746-.005 1.125-.046.378-.04.86.135.87.517.007.288-.27.495-.523.633-1.41.778-3.06 1.113-4.664.948-1.145-.118-2.352-.476-3.407-.02-.615.267-1.107.785-1.752.962-.385.107-.793.08-1.19.038-1.156-.126-2.32-.396-3.462-.187-.442.083-.874.233-1.324.247-.448.013-.94-.15-1.16-.542"/>
  <path fill="#EFEDD0" d="M1556.075 118.463c-1.976.358-3.993.42-6 .48-.695.02-1.52-.027-1.883-.62-.218-.358-.173-.856.104-1.17.276-.312.767-.416 1.148-.243l-2.346-1.132c-.16-.077-.33-.166-.4-.328-.102-.228.042-.49.21-.675.624-.702 1.663-1.004 2.568-.75.042.24.087.482.13.72.695-.138 1.392-.277 2.086-.417.338-.067.79-.08.92.24.152.374-.316.686-.7.82 1.022.577 2.268.743 3.403.452.577-.148 1.152-.413 1.746-.333.593.077 1.16.716.882 1.244 1.11-.264 2.254-.396 3.397-.396.553 0 1.14.044 1.6.353.46.31.726.97.43 1.44l-4.56.666c-1.355.197-2.774.39-4.064-.072"/>
  <ellipse transform="rotate(17.56 1549.538 160.69)" fill="#444749" cx="1549.35" cy="160.655" rx="7.722" ry="11.495"/>
  <path fill="#3C3E3F" d="M1547.783 169.898c-4.065-1.29-5.81-7.24-3.893-13.29.71-2.242 1.823-4.183 3.15-5.672-2.147 1.528-4.025 4.137-5.054 7.39-1.916 6.052-.172 12 3.893 13.288 2.56.81 5.43-.423 7.682-2.957-1.848 1.318-3.895 1.836-5.78 1.24z"/>
  <ellipse transform="rotate(174.623 1582.602 159.552)" fill="#444749" cx="1582.586" cy="159.559" rx="7.723" ry="11.495"/>
  <ellipse transform="rotate(-175.274 1581.257 182.754)" fill="#444749" cx="1581.256" cy="182.764" rx="3.067" ry="2.97"/>
  <path fill="#3C3E3F" d="M1584.678 169.32c-4.247.4-8.172-4.402-8.765-10.724-.275-2.934.223-5.672 1.252-7.813-1.7 2.263-2.62 5.72-2.268 9.498.593 6.32 4.518 11.122 8.764 10.724 2.274-.214 4.174-1.885 5.363-4.355-1.144 1.522-2.637 2.508-4.345 2.67z"/>
  <ellipse transform="rotate(168.38 1581.67 154.128)" fill="#D3D3D3" cx="1581.664" cy="154.118" rx="2.243" ry="3.337"/>
  <path fill="#D3D3D3" d="M1549.377 154.915c-.198 1.833.64 3.426 1.872 3.56s2.388-1.247 2.586-3.08c.196-1.833-.64-3.425-1.87-3.56-1.236-.132-2.392 1.247-2.59 3.08z"/>
  <g>
    <path fill="#28A8E0" d="M1897.97 444.35c-7.656 5.47-12.295 13.968-13.067 23 .083.05.2.17.246.146l39.746-19.73c-.058-.375.05-.438.074-.657-1.244-2.62-2.092-5.327-2.576-8.055-6.58-1.297-13.62-.52-20.088 2.69-1.538.76-2.983 1.637-4.337 2.604z"/>
    <linearGradient id="k" gradientUnits="userSpaceOnUse" x1="4831.491" y1="5593.534" x2="4842.732" y2="5593.534" gradientTransform="rotate(-116.398 1791.248 3930.878)">
      <stop offset="0" stop-color="#338AA9"/>
      <stop offset="1" stop-color="#3082A0"/>
    </linearGradient>
    <path fill="url(#k)" d="M1911.402 471.416c1.473-.73 3.13-1.178 4.668-1.94 6.47-3.21 11.327-8.378 14.272-14.404 5.764 7.482 13.263 5.316 13.263 5.316-8.436 7.108-32.203 11.028-32.203 11.028z"/>
    <linearGradient id="l" gradientUnits="userSpaceOnUse" x1="-6825.185" y1="5593.317" x2="-6813.943" y2="5593.317" gradientTransform="rotate(63.602 -7316.26 4464.328)">
      <stop offset="0" stop-color="#338AA9"/>
      <stop offset="1" stop-color="#3082A0"/>
    </linearGradient>
    <path fill="url(#l)" d="M1898.013 444.438v-.002c1.472-.73 2.832-1.78 4.367-2.543 6.468-3.21 13.522-3.955 20.102-2.656-2.473-9.116 3.788-13.78 3.788-13.78-10.766 2.422-28.257 18.98-28.257 18.98z"/>
    <path fill="#25A1CC" d="M1911.345 471.295c-8.986 2.79-18.565 1.338-26.225-3.508.01-.096-.02-.268.028-.292l39.747-19.73c.264.273.383.233.573.35 1.334 2.572 2.978 4.886 4.857 6.924-2.943 6.025-7.82 11.163-14.287 14.372-1.534.764-3.104 1.39-4.693 1.883z"/>
    <path opacity=".53" fill="#276577" d="M1916.07 469.476c-1.537.762-3.195 1.21-4.668 1.94 0 0 2.356-.45 5.884-1.205 0 0 .006-.038.015-.044 6.3-3.126 11.074-8.1 14.04-13.922-.34-.365-.664-.737-.995-1.166-2.944 6.027-7.806 11.187-14.275 14.398z"/>
    <path fill="#BCE1EE" d="M1893.072 464.193c3.2 1.922 6.708 3.27 10.357 3.973-.53-2.766-1.428-5.507-2.74-8.154-.015-.025-.027-.05-.04-.076-.014-.028-.028-.06-.043-.088l-.01-.02-7.783 3.86c.16.327.174.34.258.505z"/>
    <path fill="#FFF" d="M1900.512 459.655c-1.313-2.646-2.953-5.02-4.833-7.116l-.002.002h-.002c-1.648 3.332-2.657 7.02-3.06 10.728.054.113.042.094.2.42h-.002s-.014-.028.002 0c.014.03-.002 0-.002 0l7.783-3.862-.043-.077c-.013-.032-.027-.062-.042-.095z"/>
  </g>
  <g fill="#FFF">
    <path d="M1012.003 471.353v10.98c1.37-2.212 3.358-3.317 5.964-3.317 2.502 0 4.57.908 6.2 2.725 1.635 1.818 2.45 4.306 2.45 7.466 0 2.818-.783 5.24-2.35 7.268s-3.653 3.042-6.26 3.042c-2.66 0-4.662-1.12-6.005-3.358v3.12h-5.767v-27.925h5.768zm4.425 23.343c1.21 0 2.237-.494 3.08-1.48.843-.988 1.264-2.285 1.264-3.89 0-1.74-.414-3.095-1.244-4.07-.83-.973-1.85-1.46-3.06-1.46s-2.26.46-3.142 1.382c-.883.922-1.323 2.212-1.323 3.87 0 1.713.408 3.082 1.225 4.11.815 1.025 1.88 1.538 3.2 1.538zM1030.568 499.278v-27.926h5.767v27.926h-5.767zM1050.12 499.594c-3.136 0-5.558-.94-7.27-2.824-1.712-1.883-2.567-4.3-2.567-7.25 0-3.08.895-5.614 2.687-7.602 1.79-1.988 4.173-2.982 7.15-2.982 3.104 0 5.515.96 7.228 2.883 1.71 1.92 2.566 4.37 2.566 7.346 0 3.03-.862 5.524-2.587 7.485-1.724 1.964-4.128 2.944-7.208 2.944zm-.04-16.115c-1.265 0-2.213.54-2.846 1.62-.63 1.08-.947 2.474-.947 4.186 0 1.712.322 3.114.97 4.207.644 1.093 1.612 1.64 2.9 1.64 1.266 0 2.207-.534 2.826-1.6.617-1.067.927-2.456.927-4.168 0-3.924-1.276-5.886-3.83-5.886zM1076.504 479.252h5.727v18.09c0 3.212-.96 5.63-2.883 7.25-1.922 1.618-4.33 2.428-7.228 2.428-2.82 0-5.28-.5-7.387-1.5v-5.886c1.843 1.475 4.107 2.212 6.792 2.212 1.738 0 3.004-.37 3.793-1.106.79-.737 1.186-1.896 1.186-3.476v-1.343c-1.16 1.792-3.003 2.687-5.53 2.687-2.212 0-4.114-.816-5.707-2.45-1.595-1.63-2.39-4.053-2.39-7.267 0-2.844.77-5.194 2.31-7.05 1.54-1.857 3.562-2.786 6.064-2.786 2.372 0 4.122.948 5.255 2.844v-2.646zm-3.95 14.773c1.237 0 2.205-.467 2.903-1.402.697-.935 1.047-2.06 1.047-3.377 0-3.58-1.305-5.372-3.91-5.372-1.16 0-2.067.448-2.726 1.343-.66.896-.987 2.133-.987 3.713 0 1.66.315 2.923.948 3.792.63.87 1.54 1.303 2.727 1.303z"/>
  </g>
  <g>
    <g fill="#939598">
      <path d="M855.707 478.553v3.08c1.395-2.21 3.41-3.317 6.043-3.317 2.58 0 4.652.915 6.22 2.745 1.566 1.83 2.35 4.313 2.35 7.447 0 2.976-.756 5.438-2.27 7.386-1.516 1.95-3.615 2.923-6.3 2.923-2.713 0-4.73-1.066-6.043-3.2v10.35h-5.768v-27.413h5.767zm4.502 15.444c1.262 0 2.29-.48 3.08-1.442.79-.96 1.184-2.27 1.184-3.93 0-1.817-.4-3.192-1.203-4.127-.803-.934-1.823-1.402-3.06-1.402-1.214 0-2.267.46-3.16 1.383s-1.343 2.21-1.343 3.87c0 1.712.42 3.08 1.263 4.107.842 1.026 1.922 1.54 3.24 1.54zM882.92 498.895c-3.134 0-5.556-.94-7.267-2.825-1.713-1.882-2.568-4.298-2.568-7.248 0-3.08.896-5.615 2.687-7.604 1.79-1.988 4.173-2.982 7.148-2.982 3.106 0 5.518.962 7.23 2.884 1.71 1.922 2.566 4.37 2.566 7.347 0 3.028-.862 5.523-2.587 7.485-1.726 1.962-4.13 2.943-7.21 2.943zm-.04-16.117c-1.263 0-2.21.54-2.843 1.62s-.948 2.475-.948 4.187.32 3.114.968 4.207c.645 1.093 1.61 1.64 2.902 1.64 1.264 0 2.204-.534 2.823-1.6.62-1.068.93-2.457.93-4.168 0-3.923-1.277-5.886-3.832-5.886zM910.095 470.653h5.767v27.925h-5.767v-3.12c-1.343 2.238-3.345 3.357-6.004 3.357-2.606 0-4.692-1.014-6.26-3.04-1.566-2.03-2.35-4.452-2.35-7.27 0-3.16.815-5.648 2.45-7.464 1.63-1.816 3.698-2.725 6.2-2.725 2.607 0 4.594 1.105 5.964 3.318v-10.98zm-4.423 23.344c1.314 0 2.383-.514 3.2-1.54.814-1.028 1.223-2.397 1.223-4.108 0-1.66-.44-2.95-1.323-3.872s-1.93-1.383-3.14-1.383c-1.212 0-2.23.488-3.062 1.46-.83.976-1.244 2.332-1.244 4.07 0 1.605.42 2.902 1.263 3.89s1.87 1.482 3.082 1.482zM925.46 488.625c.105 1.765.632 3.134 1.58 4.107.947.975 2.2 1.46 3.752 1.46 1.66 0 3.252-.46 4.78-1.38v4.818c-1.556.844-3.424 1.265-5.61 1.265-3 0-5.477-.954-7.425-2.864-1.95-1.908-2.923-4.376-2.923-7.405.052-3.002 1.027-5.483 2.923-7.445 1.896-1.96 4.488-2.943 7.782-2.943 2.025 0 3.775.382 5.252 1.145v4.938c-1.397-.868-2.95-1.303-4.662-1.303-1.606 0-2.91.48-3.91 1.442-1 .958-1.514 2.347-1.54 4.165zM939.68 484.714v-5.174c1.578-.895 3.857-1.343 6.833-1.343 2.845 0 4.963.612 6.358 1.837 1.397 1.224 2.095 3.127 2.095 5.708v12.837h-5.65v-2.45c-.84 1.713-2.5 2.567-4.976 2.567-1.948 0-3.47-.553-4.563-1.66-1.092-1.104-1.64-2.487-1.64-4.146 0-1.92.705-3.416 2.114-4.482 1.408-1.067 3.497-1.6 6.262-1.6h2.527v-1.383c0-1.685-1.12-2.528-3.357-2.528-2.16 0-4.16.607-6.003 1.817zm9.36 5.65h-1.856c-.975 0-1.725.21-2.25.63-.527.423-.792.963-.792 1.62 0 1.343.776 2.014 2.332 2.014.815 0 1.446-.25 1.896-.75.447-.5.67-1.186.67-2.054v-1.46zM972.146 479.145v4.937c-1.396-.816-3.028-1.225-4.898-1.225-.684 0-1.21.14-1.58.415-.367.277-.553.625-.553 1.046 0 .237.065.46.2.672.13.21.347.408.65.592.302.185.59.35.87.494.275.145.655.322 1.145.533.486.21.874.394 1.164.552 1.212.632 2.186 1.363 2.923 2.192.737.83 1.105 1.89 1.105 3.18 0 1.975-.71 3.502-2.133 4.582-1.422 1.08-3.305 1.62-5.648 1.62-2.424 0-4.45-.408-6.084-1.225v-5.134c1.817 1.264 3.74 1.896 5.768 1.896 1.448 0 2.172-.46 2.172-1.383 0-.238-.065-.46-.197-.673-.13-.21-.353-.408-.67-.592-.316-.184-.606-.336-.868-.455-.265-.118-.646-.283-1.146-.494-.5-.21-.883-.38-1.147-.513-2.66-1.264-3.99-3.16-3.99-5.688 0-1.948.744-3.463 2.232-4.543 1.488-1.08 3.338-1.62 5.55-1.62 2.053.003 3.766.28 5.134.833zM983.402 482.778v9.204c0 .71.204 1.25.614 1.62.406.37.94.553 1.6.553 1.052 0 1.986-.263 2.803-.79v4.78c-.975.42-2.292.63-3.95.63-4.556 0-6.833-2.276-6.833-6.832v-9.164h-2.883v-4.227h2.883v-4.74h5.766v4.74h4.66v4.226h-4.66z"/>
    </g>
  </g>
  <g>
    <g fill="#939598">
      <path d="M1097.932 502.22v-27.927h5.768v27.926h-5.768zM1124.355 496.254v4.818c-1.368.896-3.463 1.343-6.28 1.343-3.29 0-5.853-.954-7.682-2.864-1.83-1.908-2.745-4.363-2.745-7.366 0-3.185.89-5.68 2.666-7.485 1.778-1.804 3.97-2.706 6.576-2.706 2.688 0 4.806.783 6.36 2.35 1.552 1.567 2.33 3.904 2.33 7.012 0 .606-.106 1.646-.317 3.12h-11.77c.395 1.105 1.08 1.962 2.055 2.567.974.606 2.145.908 3.515.908 2.03.002 3.792-.563 5.292-1.696zm-4.146-5.885v-.475c-.185-2.344-1.212-3.516-3.082-3.516-.923 0-1.738.334-2.448 1.006-.71.67-1.187 1.666-1.423 2.982h6.952zM1134.546 492.265c.106 1.765.632 3.134 1.58 4.108.948.975 2.198 1.46 3.753 1.46 1.66 0 3.25-.46 4.778-1.382v4.82c-1.555.843-3.423 1.264-5.61 1.264-3 0-5.476-.954-7.425-2.863-1.947-1.908-2.922-4.376-2.922-7.405.053-3 1.028-5.484 2.923-7.445 1.896-1.962 4.49-2.942 7.78-2.942 2.028 0 3.78.38 5.255 1.145v4.938c-1.396-.868-2.95-1.303-4.66-1.303-1.607 0-2.91.48-3.91 1.442-1.002.96-1.515 2.348-1.542 4.165zM1154.89 486.42v9.202c0 .71.202 1.25.61 1.62s.94.553 1.6.553c1.053 0 1.988-.263 2.805-.79v4.78c-.974.42-2.29.63-3.95.63-4.555 0-6.833-2.276-6.833-6.832v-9.163h-2.884v-4.227h2.884v-4.74h5.768v4.74h4.66v4.227h-4.66zM1164.17 478.756c-.658-.658-.987-1.448-.987-2.37 0-.92.33-1.71.987-2.37.658-.658 1.448-.987 2.37-.987.92 0 1.712.328 2.37.987.658.658.987 1.448.987 2.37 0 .92-.33 1.71-.987 2.37-.658.657-1.45.986-2.37.986-.922 0-1.712-.33-2.37-.987zm-.515 23.463v-20.027h5.768v20.026h-5.768zM1175.07 478.756c-.657-.658-.986-1.448-.986-2.37 0-.92.33-1.71.987-2.37.66-.658 1.448-.987 2.37-.987.923 0 1.71.328 2.37.987.658.658.986 1.448.986 2.37 0 .92-.328 1.71-.985 2.37-.66.657-1.447.986-2.37.986-.92 0-1.71-.33-2.37-.987zm-.513 23.463v-20.027h5.768v20.026h-5.768z"/>
    </g>
  </g>
  <g>
    <image overflow="visible" opacity=".5" width="5206" height="559" xlink:href="674ED1B4.png" transform="matrix(.24 0 0 .24 755.55 473.43)"/>
    <path fill="#FFF" d="M807.553 518.43h1159.22v44H807.552z"/>
  </g>
  <path fill="#FFF" d="M678.2 518.43H2106.16v136.103H678.2z"/>
  <g opacity=".4">
    <image overflow="visible" opacity=".5" width="5754" height="559" xlink:href="674ED1B5.png" transform="matrix(.24 0 0 .24 700.4 810.67)"/>
    <path fill="#FFF" d="M752.403 855.674h1290.73v44H752.403z"/>
    <path fill="#FFF" d="M597.2 763.57H2187.16v136.104H597.2z"/>
  </g>
  <path fill="none" d="M835.96 726.71h1107.645v201.965H835.96z"/>
  <text transform="translate(835.96 747.92)">
    <tspan x="0" y="0" fill="#58595B" font-family="'Hind-Regular'" font-size="30">n joc sunt cariere, faim, onoare, bani. Dac ai un cont i eti activ pe aceast reea de </tspan><tspan x="0" y="36" fill="#58595B" font-family="'Hind-Regular'" font-size="30">socializare atunci mai mult ca sigur i TU eti complice. Nu art cu degetul doar </tspan><tspan x="0" y="72" fill="#58595B" font-family="'Hind-Regular'" font-size="30">ctre....a de socializare atunci mai mult ca sigur i TU eti complice. Nu art cu degetul </tspan><tspan x="0" y="108" fill="#58595B" font-family="'Hind-Regular'" font-size="30">doar ctre....</tspan>
  </text>
  <g>
    <text transform="translate(827.18 701.37)" fill="#3E3E42" font-family="'Hind-Bold'" font-size="82.104">
      Cnd Facebook ucide..
    </text>
  </g>
  <text transform="translate(1691.28 700.69)" fill="#6D6E71" font-family="'Hind-Light'" font-size="20">
    Feb 11, 2015  Mircea Stanciu
  </text>
  <g>
    <path fill="#F9F9FA" d="M608.162 918.93c3.225 0 3.225-5 0-5s-3.224 5 0 5z"/>
  </g>
  <path fill="#F1F2F2" d="M827.18 1627.44h1123.215v88H827.18z"/>
  <text transform="translate(885.42 1682.44)" fill="#939598" font-family="'Hind-Regular'" font-size="30">
    Misiunea web este un blog despre universul web. Daca vrei sa devi autor, poti!
  </text>
  <text transform="translate(1088.86 2870.44)" fill="#939598" font-family="'Hind-Regular'" font-size="30">
    creat si mentinut de Mircea@pixel-mircea.com
  </text>
  <g>
    <defs>
      <path id="m" d="M1030.426 976.56h100.35v137.973h-100.35z"/>
    </defs>
    <clipPath id="n">
      <use xlink:href="#m" overflow="visible"/>
    </clipPath>
    <g clip-path="url(#n)">
      <image overflow="visible" width="1920" height="1056" xlink:href="674ED1B4.jpg" transform="matrix(.15 0 0 .15 925.68 975.27)"/>
    </g>
    <path fill="none" d="M853.45 1107.67h279.07v130.228H853.45z"/>
    <text transform="translate(853.45 1122.04)">
      <tspan x="0" y="0" fill="#58595B" font-family="'Hind-Regular'" font-size="20.326">n joc sunt cariere, </tspan><tspan x="0" y="24.393" fill="#58595B" font-family="'Hind-Regular'" font-size="20.326">faim, onoare, bani. Dac ai un </tspan><tspan x="0" y="48.784" fill="#58595B" font-family="'Hind-Regular'" font-size="20.326">cont i eti activ pe aceast </tspan><tspan x="0" y="73.176" fill="#58595B" font-family="'Hind-Regular'" font-size="20.326">reea de socializare atunci mai </tspan><tspan x="0" y="97.567" fill="#58595B" font-family="'Hind-Regular'" font-size="20.326">mult ca sigur i TU eti com</tspan><tspan x="235.896" y="97.567" fill="#58595B" font-family="'Hind-Regular'" font-size="20.326">-</tspan>
    </text>
    <text transform="translate(853.45 1008.07)">
      <tspan x="0" y="0" fill="#9B8579" font-family="'Hind-Bold'" font-size="27.851">Windows OS </tspan><tspan x="0" y="33.421" fill="#9B8579" font-family="'Hind-Bold'" font-size="27.851">bate Mac</tspan>
    </text>
    <text transform="translate(853.45 1069.86)">
      <tspan x="0" y="0" fill="#6D6E71" font-family="'Hind-Light'" font-size="16.261">Feb 11, 2015 </tspan><tspan x="0" y="19.514" fill="#6D6E71" font-family="'Hind-Light'" font-size="16.261">Mircea Stanciu</tspan>
    </text>
    <defs>
      <path id="o" d="M1392.625 976.56h100.35v137.973h-100.35z"/>
    </defs>
    <clipPath id="p">
      <use xlink:href="#o" overflow="visible"/>
    </clipPath>
    <g clip-path="url(#p)">
      <image overflow="visible" width="1920" height="1056" xlink:href="674ED1BC.jpg" transform="matrix(.15 0 0 .15 1287.88 975.27)"/>
    </g>
    <path fill="none" d="M1215.65 1107.67h279.068v130.228H1215.65z"/>
    <text transform="translate(1215.65 1122.04)">
      <tspan x="0" y="0" fill="#58595B" font-family="'Hind-Regular'" font-size="20.326">n joc sunt cariere, </tspan><tspan x="0" y="24.393" fill="#58595B" font-family="'Hind-Regular'" font-size="20.326">faim, onoare, bani. Dac ai un </tspan><tspan x="0" y="48.784" fill="#58595B" font-family="'Hind-Regular'" font-size="20.326">cont i eti activ pe aceast </tspan><tspan x="0" y="73.176" fill="#58595B" font-family="'Hind-Regular'" font-size="20.326">reea de socializare atunci mai </tspan><tspan x="0" y="97.567" fill="#58595B" font-family="'Hind-Regular'" font-size="20.326">mult ca sigur i TU eti com</tspan><tspan x="235.896" y="97.567" fill="#58595B" font-family="'Hind-Regular'" font-size="20.326">-</tspan>
    </text>
    <text transform="translate(1215.65 1008.07)">
      <tspan x="0" y="0" fill="#9B8579" font-family="'Hind-Bold'" font-size="27.851">Windows OS </tspan><tspan x="0" y="33.421" fill="#9B8579" font-family="'Hind-Bold'" font-size="27.851">bate Mac</tspan>
    </text>
    <text transform="translate(1215.65 1069.86)">
      <tspan x="0" y="0" fill="#6D6E71" font-family="'Hind-Light'" font-size="16.261">Feb 11, 2015 </tspan><tspan x="0" y="19.514" fill="#6D6E71" font-family="'Hind-Light'" font-size="16.261">Mircea Stanciu</tspan>
    </text>
    <defs>
      <path id="q" d="M1030.426 1282.56h100.35v137.973h-100.35z"/>
    </defs>
    <clipPath id="r">
      <use xlink:href="#q" overflow="visible"/>
    </clipPath>
    <g clip-path="url(#r)">
      <image overflow="visible" width="1920" height="1056" xlink:href="674ED1BF.jpg" transform="matrix(.15 0 0 .15 925.68 1281.27)"/>
    </g>
    <path fill="none" d="M853.45 1413.67h279.07v130.228H853.45z"/>
    <text transform="translate(853.45 1428.04)">
      <tspan x="0" y="0" fill="#58595B" font-family="'Hind-Regular'" font-size="20.326">n joc sunt cariere, </tspan><tspan x="0" y="24.393" fill="#58595B" font-family="'Hind-Regular'" font-size="20.326">faim, onoare, bani. Dac ai un </tspan><tspan x="0" y="48.784" fill="#58595B" font-family="'Hind-Regular'" font-size="20.326">cont i eti activ pe aceast </tspan><tspan x="0" y="73.176" fill="#58595B" font-family="'Hind-Regular'" font-size="20.326">reea de socializare atunci mai </tspan><tspan x="0" y="97.567" fill="#58595B" font-family="'Hind-Regular'" font-size="20.326">mult ca sigur i TU eti com</tspan><tspan x="235.896" y="97.567" fill="#58595B" font-family="'Hind-Regular'" font-size="20.326">-</tspan>
    </text>
    <text transform="translate(853.45 1314.07)">
      <tspan x="0" y="0" fill="#9B8579" font-family="'Hind-Bold'" font-size="27.851">Windows OS </tspan><tspan x="0" y="33.421" fill="#9B8579" font-family="'Hind-Bold'" font-size="27.851">bate Mac</tspan>
    </text>
    <text transform="translate(853.45 1375.86)">
      <tspan x="0" y="0" fill="#6D6E71" font-family="'Hind-Light'" font-size="16.261">Feb 11, 2015 </tspan><tspan x="0" y="19.514" fill="#6D6E71" font-family="'Hind-Light'" font-size="16.261">Mircea Stanciu</tspan>
    </text>
    <g>
      <defs>
        <path id="s" d="M1392.625 1282.56h100.35v137.973h-100.35z"/>
      </defs>
      <clipPath id="t">
        <use xlink:href="#s" overflow="visible"/>
      </clipPath>
      <g clip-path="url(#t)">
        <image overflow="visible" width="1920" height="1056" xlink:href="674ED1BD.jpg" transform="matrix(.15 0 0 .15 1287.88 1281.27)"/>
      </g>
    </g>
    <path fill="none" d="M1215.65 1413.67h279.068v130.228H1215.65z"/>
    <text transform="translate(1215.65 1428.04)">
      <tspan x="0" y="0" fill="#58595B" font-family="'Hind-Regular'" font-size="20.326">n joc sunt cariere, </tspan><tspan x="0" y="24.393" fill="#58595B" font-family="'Hind-Regular'" font-size="20.326">faim, onoare, bani. Dac ai un </tspan><tspan x="0" y="48.784" fill="#58595B" font-family="'Hind-Regular'" font-size="20.326">cont i eti activ pe aceast </tspan><tspan x="0" y="73.176" fill="#58595B" font-family="'Hind-Regular'" font-size="20.326">reea de socializare atunci mai </tspan><tspan x="0" y="97.567" fill="#58595B" font-family="'Hind-Regular'" font-size="20.326">mult ca sigur i TU eti com</tspan><tspan x="235.896" y="97.567" fill="#58595B" font-family="'Hind-Regular'" font-size="20.326">-</tspan>
    </text>
    <text transform="translate(1215.65 1314.07)">
      <tspan x="0" y="0" fill="#9B8579" font-family="'Hind-Bold'" font-size="27.851">Windows OS </tspan><tspan x="0" y="33.421" fill="#9B8579" font-family="'Hind-Bold'" font-size="27.851">bate Mac</tspan>
    </text>
    <text transform="translate(1215.65 1375.86)">
      <tspan x="0" y="0" fill="#6D6E71" font-family="'Hind-Light'" font-size="16.261">Feb 11, 2015 </tspan><tspan x="0" y="19.514" fill="#6D6E71" font-family="'Hind-Light'" font-size="16.261">Mircea Stanciu</tspan>
    </text>
  </g>
  <text transform="translate(1214.2 1868.56)" fill="#414042" font-family="'Hind-Bold'" font-size="112.278">
    TL;DR?
  </text>
  <g>
    <g opacity=".3">
      <image overflow="visible" opacity=".5" width="2960" height="559" xlink:href="674ED1BC.png" transform="matrix(.24 0 0 .24 845.29 1904.82)"/>
      <path fill="#FFF" d="M897.295 1949.82h620.184v44H897.294z"/>
      <path fill="#FFF" d="M828.09 1949.82h763.963v136.104H828.09z"/>
    </g>
    <g opacity=".3">
      <image overflow="visible" opacity=".5" width="2960" height="559" xlink:href="674ED1B6.png" transform="matrix(.24 0 0 .24 850.66 2214.49)"/>
      <path fill="#FFF" d="M902.665 2259.49h620.184v44H902.664z"/>
      <path fill="#FFF" d="M828.09 2167.384h763.964v136.104H828.09z"/>
    </g>
    <path fill="none" d="M1068.588 2063.29h385.178v252.188h-385.178z"/>
    <text transform="translate(1068.59 2075.59)">
      <tspan x="0" y="0" fill="#58595B" font-family="'Hind-Regular'" font-size="17.398">n joc sunt cariere, </tspan><tspan x="0" y="20.878" fill="#58595B" font-family="'Hind-Regular'" font-size="17.398">faim, onoare, bani. Dac ai un cont i eti activ pe </tspan><tspan x="0" y="41.756" fill="#58595B" font-family="'Hind-Regular'" font-size="17.398">aceast reea de socializare atunci mai mult ca sigur </tspan><tspan x="0" y="62.635" fill="#58595B" font-family="'Hind-Regular'" font-size="17.398">i TU eti complice. Nu art cu degetul doar </tspan><tspan x="0" y="83.513" fill="#58595B" font-family="'Hind-Regular'" font-size="17.398">ctre....n joc sunt cariere, </tspan><tspan x="0" y="104.391" fill="#58595B" font-family="'Hind-Regular'" font-size="17.398">faim, onoare, bani. Dac ai un cont i eti activ pe </tspan><tspan x="0" y="125.269" fill="#58595B" font-family="'Hind-Regular'" font-size="17.398">aceast reea de socializare atunci mai mult ca sigur </tspan><tspan x="0" y="146.147" fill="#58595B" font-family="'Hind-Regular'" font-size="17.398">i TU ctre.</tspan>
    </text>
    <image overflow="visible" width="300" height="300" xlink:href="../Pictures/play-button-flat-fm100-salmon.png" transform="matrix(.28 0 0 .28 956.34 2104.39)"/>
    <text transform="translate(936.33 2033.87)">
      <tspan x="0" y="0" fill="#BCBEC0" font-family="'Hind-Bold'" font-size="79.434">ep</tspan><tspan x="90.871" y="0" fill="#414042" font-family="'Hind-Bold'" font-size="79.434">#1securitate</tspan>
    </text>
    <path fill="#BCBEC0" d="M931.71 2262.198h546.686v8.988H931.71z"/>
    <path fill="#414042" d="M931.71 2262.198h209.807v8.988H931.71z"/>
    <path fill="#C54242" d="M1133.95 2262.198h7.566v8.988h-7.566z"/>
    <g opacity=".3">
      <image overflow="visible" opacity=".5" width="2960" height="559" xlink:href="EE644F53.png" transform="matrix(.24 0 0 .24 845.29 2346.82)"/>
      <path fill="#FFF" d="M897.295 2391.82h620.184v44H897.294z"/>
      <path fill="#FFF" d="M828.09 2391.82h763.963v136.104H828.09z"/>
    </g>
    <g opacity=".3">
      <image overflow="visible" opacity=".5" width="2960" height="559" xlink:href="EE644F51.png" transform="matrix(.24 0 0 .24 850.66 2613.99)"/>
      <path fill="#FFF" d="M902.665 2658.99h620.184v44.002H902.664z"/>
      <path fill="#FFF" d="M828.09 2566.886h763.964v136.104H828.09z"/>
    </g>
    <path fill="none" d="M1068.588 2505.29h385.178v252.188h-385.178z"/>
    <text transform="translate(1068.59 2517.59)">
      <tspan x="0" y="0" fill="#58595B" font-family="'Hind-Regular'" font-size="17.398">n joc sunt cariere, </tspan><tspan x="0" y="20.878" fill="#58595B" font-family="'Hind-Regular'" font-size="17.398">faim, onoare, bani. Dac ai un cont i eti activ pe </tspan><tspan x="0" y="41.756" fill="#58595B" font-family="'Hind-Regular'" font-size="17.398">aceast reea de socializare atunci mai mult ca sigur </tspan><tspan x="0" y="62.635" fill="#58595B" font-family="'Hind-Regular'" font-size="17.398">i TU eti complice. Nu art cu degetul doar </tspan><tspan x="0" y="83.513" fill="#58595B" font-family="'Hind-Regular'" font-size="17.398">ctre....n joc sunt cariere, </tspan><tspan x="0" y="104.391" fill="#58595B" font-family="'Hind-Regular'" font-size="17.398">faim, onoare, bani. Dac ai un cont i eti activ pe </tspan><tspan x="0" y="125.269" fill="#58595B" font-family="'Hind-Regular'" font-size="17.398">aceast reea de socializare atunci mai mult ca sigur </tspan><tspan x="0" y="146.147" fill="#58595B" font-family="'Hind-Regular'" font-size="17.398">i TU ctre.</tspan>
    </text>
    <image overflow="visible" width="300" height="300" xlink:href="../Pictures/play-button-flat-fm100-salmon.png" transform="matrix(.28 0 0 .28 956.34 2546.39)"/>
    <g>
      <text transform="translate(936.33 2475.87)">
        <tspan x="0" y="0" fill="#BCBEC0" font-family="'Hind-Bold'" font-size="79.434">ep</tspan><tspan x="90.871" y="0" fill="#414042" font-family="'Hind-Bold'" font-size="79.434">#2interviul</tspan>
      </text>
    </g>
    <circle fill="#FFF" cx="998.839" cy="2146.886" r="29.124"/>
    <g fill="#C54242">
      <path d="M983.232 2126.388h9.062v40.996h-9.062zM1005.385 2126.388h9.06v40.996h-9.06z"/>
    </g>
  </g>
  <g>
    <path fill="#F1F2F2" d="M2119.217 1415.796c3.225 0 3.225-5 0-5s-3.225 5 0 5z"/>
  </g>
  <g fill="#CCC">
    <path d="M1728.707 1104.336l32.02 32.022 9.113-9.11c.834-.836.834-2.188 0-3.022l-41.134-41.135c-.834-.833-2.188-.833-3.02 0l-40.784 40.784c-.834.834-.834 2.187 0 3.02l9.11 9.113 31.673-31.672c.835-.833 2.188-.833 3.022 0zM1760.73 1386.202l-31.673 31.672c-.834.834-2.186.834-3.02 0l-32.023-32.022-9.11 9.112c-.835.834-.835 2.187 0 3.02l41.133 41.135c.835.834 2.187.834 3.02 0l40.785-40.784c.834-.834.834-2.187 0-3.02l-9.113-9.114z"/>
  </g>
  <g fill="#CCC">
    <path d="M1729.574 2182.965l52.828 52.828 15.032-15.03c1.376-1.378 1.376-3.608 0-4.984l-67.86-67.862c-1.376-1.376-3.607-1.376-4.983 0l-67.28 67.282c-1.377 1.376-1.377 3.607 0 4.983l15.03 15.032 52.25-52.25c1.377-1.376 3.608-1.376 4.984 0zM1782.402 2430.255l-52.25 52.25c-1.376 1.376-3.606 1.376-4.983 0l-52.83-52.828-15.03 15.032c-1.377 1.375-1.377 3.606 0 4.982l67.86 67.86c1.376 1.376 3.606 1.376 4.982 0l67.282-67.28c1.376-1.378 1.376-3.61 0-4.984l-15.032-15.033z"/>
  </g>
  <g>
    <path fill="#FFF" d="M667.072 404.696c3.225 0 3.225-5 0-5s-3.224 5 0 5z"/>
  </g>
  <g>
    <path fill="#FFF" d="M808.086 95.665c3.225 0 3.225-5 0-5s-3.225 5 0 5z"/>
  </g>
  <g>
    <path fill="#FFF" d="M1351.14 476.703c3.226 0 3.226-5 0-5s-3.224 5 0 5z"/>
  </g>
  <g>
    <path fill="#FFF" d="M2077.213-21.347c3.225 0 3.225-5 0-5s-3.225 5 0 5z"/>
  </g>
  <g>
    <path fill="#FFF" d="M1774.183 437.7c3.225 0 3.225-5 0-5s-3.225 5 0 5z"/>
  </g>
  <g>
    <path fill="#FFF" d="M1408.146 2.655c3.225 0 3.225-5 0-5s-3.224 5 0 5z"/>
  </g>
  <g>
    <path fill="#FFF" d="M898.095-12.346c3.225 0 3.225-5 0-5s-3.225 5 0 5z"/>
  </g>
  <g>
    <path fill="#FFF" d="M916.097 89.664c3.225 0 3.225-5 0-5s-3.225 5 0 5z"/>
  </g>
  <g>
    <path fill="#FFF" d="M727.078 20.657c3.225 0 3.225-5 0-5s-3.224 5 0 5z"/>
  </g>
  <g>
    <path fill="#FFF" d="M844.09 440.7c3.225 0 3.225-5 0-5s-3.225 5 0 5z"/>
  </g>
  <g>
    <path fill="#FFF" d="M1264.132 449.7c3.225 0 3.225-5 0-5s-3.225 5 0 5z"/>
  </g>
  <g>
    <path fill="#FFF" d="M1363.142 332.688c3.225 0 3.225-5 0-5s-3.225 5 0 5z"/>
  </g>
  <g>
    <path fill="#FFF" d="M1342.14 80.663c3.225 0 3.225-5 0-5s-3.225 5 0 5z"/>
  </g>
  <g>
    <path fill="#FFF" d="M1264.132-21.347c3.225 0 3.225-5 0-5s-3.225 5 0 5z"/>
  </g>
  <g>
    <path fill="#FFF" d="M1054.11 89.664c3.225 0 3.225-5 0-5s-3.224 5 0 5z"/>
  </g>
  <g>
    <path fill="#FFF" d="M1087.113-12.346c3.225 0 3.225-5 0-5s-3.224 5 0 5z"/>
  </g>
  <g>
    <path fill="#FFF" d="M1885.193 23.658c3.225 0 3.225-5 0-5s-3.224 5 0 5z"/>
  </g>
  <g>
    <path fill="#FFF" d="M1564.162-30.348c3.225 0 3.225-5 0-5s-3.224 5 0 5z"/>
  </g>
  <g>
    <path fill="#FFF" d="M1732.178 134.668c3.225 0 3.225-5 0-5s-3.225 5 0 5z"/>
  </g>
  <g>
    <path fill="#FFF" d="M2095.215 443.7c3.225 0 3.225-5 0-5s-3.225 5 0 5z"/>
  </g>
  <g>
    <path fill="#FFF" d="M2149.22 128.668c3.225 0 3.225-5 0-5s-3.225 5 0 5z"/>
  </g>
  <g>
    <path fill="#FFF" d="M2017.207 47.66c3.225 0 3.225-5 0-5s-3.225 5 0 5z"/>
  </g>
  <g>
    <path fill="#FFF" d="M628.068 305.686c3.225 0 3.225-5 0-5s-3.224 5 0 5z"/>
  </g>
  <g>
    <path fill="#FFF" d="M643.07 47.66c3.224 0 3.224-5 0-5s-3.225 5 0 5z"/>
  </g>
  <g>
    <path fill="#FFF" d="M640.07-60.35c3.224 0 3.224-5 0-5s-3.225 5 0 5z"/>
  </g>
  <g>
    <path fill="#FFF" d="M808.086 8.656c3.225 0 3.225-5 0-5s-3.225 5 0 5z"/>
  </g>
  <g>
    <path fill="#1C75BC" d="M1564.162 488.704c3.225 0 3.225-5 0-5s-3.224 5 0 5z"/>
  </g>
  <g fill="#CCC">
    <circle cx="1703.375" cy="1242.457" r="4.352"/>
    <path d="M1712.2 1238.105h43.52v8.702h-43.52z"/>
    <circle cx="1703.375" cy="1261.105" r="4.352"/>
    <path d="M1712.2 1256.754h43.52v8.703h-43.52z"/>
    <g>
      <circle cx="1703.375" cy="1279.754" r="4.352"/>
      <path d="M1712.2 1275.403h43.52v8.702h-43.52z"/>
    </g>
  </g>
  <g>
    <path fill="#B2B2B2" d="M265.787 166.002l-4.564-1.648-.168 1.786s.813 6.424 7.275 4.893c0 0 .372-2.452 1.12-5.147.745-2.7-3.663.116-3.663.116z"/>
    <ellipse transform="rotate(-54.4 222.4 230)" fill="#969696" cx="222.391" cy="229.992" rx="11.855" ry="7.722"/>
    <path fill="#969696" d="M7.357 102.902c-3.56 2.576-3.903 8.685-.77 13.645 3.13 4.96 8.554 6.892 12.11 4.316 3.56-2.577 3.904-8.687.77-13.646-3.13-4.96-8.553-6.892-12.11-4.315z"/>
    <ellipse transform="rotate(-80.43 269.91 142.52)" fill="#969696" cx="269.899" cy="142.531" rx="15.348" ry="9.997"/>
  </g>
  <g fill="#444749">
    <path d="M229.29 220.35c-1.245-.894-2.807-1.158-4.472-.897.777.144 1.503.437 2.144.896 3.468 2.48 3.19 8.81-.62 14.132-2.442 3.41-5.74 5.574-8.708 6.04 3.435.632 7.93-1.698 11.036-6.04 3.81-5.323 4.09-11.65.62-14.133zM19.633 118.693c-3.557 2.576-8.98.644-12.11-4.316-2.01-3.177-2.58-6.824-1.803-9.714-1.926 3.034-1.685 7.84.87 11.883 3.13 4.96 8.555 6.894 12.112 4.316 1.278-.924 2.136-2.312 2.57-3.93-.434.686-.98 1.284-1.64 1.76zM272.45 127.394c-1.956-.33-3.925.25-5.712 1.5.986-.277 1.995-.347 3.003-.178 5.445.918 8.717 8.438 7.307 16.796-.903 5.355-3.512 9.744-6.697 11.974 4.352-1.217 8.256-6.48 9.406-13.296 1.41-8.357-1.86-15.877-7.307-16.796z"/>
  </g>
  <path fill="#3C3E3F" d="M71.793 85.665c-4.25.35-8.12-4.492-8.643-10.82-.195-2.342.1-4.56.76-6.442-1.403 2.23-2.15 5.355-1.87 8.755.523 6.326 4.394 11.17 8.644 10.817 2.677-.22 4.86-2.45 5.986-5.65-1.21 1.92-2.908 3.177-4.877 3.34zM103.32 85.398c-4.252-.352-7.27-5.766-6.75-12.092.244-2.938 1.215-5.546 2.604-7.473-2.07 1.928-3.584 5.17-3.896 8.953-.525 6.326 2.496 11.74 6.746 12.093 2.277.188 4.44-1.126 6.044-3.35-1.396 1.3-3.04 2.01-4.748 1.868z"/>
  <g fill="#444749">
    <ellipse transform="rotate(85.27 69.74 76.52)" cx="69.736" cy="76.519" rx="11.495" ry="7.722"/>
    <ellipse transform="rotate(-85.26 102.97 75.42)" cx="102.973" cy="75.422" rx="11.496" ry="7.722"/>
    <path d="M91.112 98.42c-.65.812-1.312 1.534-2.042 2.272-.136.137-.328.29-.48.403-.647.43-1.34.828-2.044 1.175-.115.012-1.015.34-1.366.437-.22.06-1.31.28-1.438.345-.636.044-1.275.057-1.906.042-.354-.01-.934-.107-1.22-.154-.804-.236-2.317-.696-1.023-.14-5.063-2.173-10.943-1.506-13.967 3.662-2.517 4.3-1.43 11.78 3.663 13.965 12.317 5.29 27.468 3.413 36.257-7.573 3.443-4.3 4.202-10.234 0-14.435-3.565-3.567-10.97-4.328-14.435 0zm-2.665 2.782c-.094.07-.11.076 0 0z"/>
  </g>
  <g fill="#D3D3D3">
    <ellipse transform="rotate(-16.16 101.66 70.58)" cx="101.643" cy="70.573" rx="2.243" ry="3.339"/>
    <ellipse transform="rotate(-106.15 66.98 71.67)" cx="66.979" cy="71.671" rx="3.338" ry="2.242"/>
  </g>
  <g fill="#1F110C">
    <path d="M90.764 98.918c.152-.117.36-.28.504-.423.492-.5.95-1 1.4-1.517-.574.397-1.102.873-1.556 1.442-.17.21-.345.405-.517.606.057-.035.114-.072.17-.108zM71.486 118.23c-5.092-2.188-6.177-9.666-3.662-13.966.182-.31.373-.6.573-.875-1.066.756-2.01 1.77-2.77 3.072-2.518 4.3-1.432 11.78 3.662 13.965 11.897 5.11 26.436 3.53 35.335-6.48-8.97 8.015-22.174 8.99-33.14 4.282zM90.57 99.056l-.002.002.09-.063-.088.06z"/>
  </g>
  <path opacity=".1" fill="#B5AC78" d="M38.266 166.042c-.758 8.75-1.464 17.873 1.786 26.03 1.08 2.707 2.566 5.23 4.095 7.712 3.7 6 7.678 11.828 11.916 17.46 4.266 5.67 8.998 11.306 15.37 14.426 8.296 4.065 19.65 4.275 24.04 12.403.81 1.495 1.37 3.255 2.788 4.192 1.075.71 2.432.792 3.717.854 6.727.322 13.455.645 20.182.97 3.194.152 6.947.637 8.48 3.443 1.817-8.098-.37-16.995-5.734-23.328-3.394-4.007-8.35-8.342-6.82-13.365 1.165-3.812 5.58-5.552 7.882-8.807.617-.87 1.07-2.084.468-2.966-.388-.567-1.09-.808-1.737-1.035-12.92-4.526-21.953-16.996-35.036-21.016-4.1-1.26-8.51-1.653-12.296-3.666-3.786-2.014-6.84-6.46-5.366-10.486-6.557-1.012-13.197-2.687-18.613-6.516s-9.427-10.188-8.93-16.804c-3.51 2.29-3.397 7.358-3.046 11.534.35 4.175-.04 9.376-3.86 11.096"/>
  <path fill="#EDEEEF" d="M161.965 204.13c-.55-.86-1.195-1.736-2.14-2.114-.65-.26-1.366-.257-2.064-.233-4.623.15-9.227.986-13.608 2.47-1.014.344-2.06.752-2.758 1.56-1.062 1.23-1.047 3.03-.928 4.647.134 1.8.346 3.654 1.248 5.215.9 1.56 2.67 2.757 4.447 2.453l.455.26c.222 1.167 1.675 1.58 2.862 1.614 1.187.033 2.572.006 3.31.938.265.33.4.746.64 1.098.604.896 1.732 1.25 2.78 1.518 2.478.638 5.28 1.114 7.45-.238 1.544-.964 2.467-2.724 2.748-4.52.285-1.797-.004-3.636-.445-5.4-.82-3.277-2.175-6.422-3.995-9.27zM189.83 56.903c-1.486-5.934-3.94-11.628-7.238-16.782-.995-1.555-2.162-3.14-3.877-3.825-1.17-.468-2.47-.46-3.73-.42-8.375.27-16.707 1.783-24.643 4.472-1.834.622-3.728 1.36-4.992 2.826-1.92 2.225-1.895 5.48-1.678 8.413.24 3.254.625 6.613 2.258 9.44 1.633 2.826 4.834 4.994 8.052 4.443l.82.47c.403 2.112 3.034 2.86 5.186 2.92 2.15.06 4.656.013 5.993 1.7.478.6.728 1.35 1.156 1.986 1.095 1.624 3.14 2.26 5.035 2.75 4.484 1.155 9.56 2.017 13.488-.434 2.795-1.74 4.467-4.93 4.98-8.18.513-3.253-.01-6.583-.808-9.78z"/>
  <g fill="#EDEEEF">
    <path d="M80.19 28.08c-3.45-2.745-7.228-5.072-11.216-6.945.113-.435-.602-.676-.187-1.346-2.773.88-7.774 2.124-9.534 4.41-.785 1.02-1.195 2.28-1.907 3.353-1.18 1.772-3.085 2.902-4.878 4.05-7.044 4.518-13.406 10.43-17.463 17.697 1.07-.198 2.07-.767 3.022-1.328l.106-.063c-.15.178-.308.35-.456.53.717 1.245 1.675 2.404 2.626 3.473 2.17 2.44 4.516 4.872 7.53 6.124 3.015 1.253 6.874 1.027 9.094-1.365l.938-.126c1.604 1.43 4.15.428 5.893-.83 1.745-1.26 3.705-2.822 5.792-2.296.745.188 1.398.632 2.128.876 1.854.625 3.865-.114 5.668-.876 4.262-1.808 8.816-4.21 10.447-8.544 1.16-3.082.55-6.626-1.02-9.522s-4.007-5.223-6.584-7.274zM161.965 204.13c-.55-.86-1.195-1.736-2.14-2.114-.65-.26-1.366-.257-2.064-.233-4.623.15-9.227.986-13.608 2.47-1.014.344-2.06.752-2.758 1.56-1.062 1.23-1.047 3.03-.928 4.647.134 1.8.346 3.654 1.248 5.215.9 1.56 2.67 2.757 4.447 2.453l.455.26c.222 1.167 1.675 1.58 2.862 1.614 1.187.033 2.572.006 3.31.938.265.33.4.746.64 1.098.604.896 1.732 1.25 2.78 1.518 2.478.638 5.28 1.114 7.45-.238 1.544-.964 2.467-2.724 2.748-4.52.285-1.797-.004-3.636-.445-5.4-.82-3.277-2.175-6.422-3.995-9.27zM189.83 56.903c-1.486-5.934-3.94-11.628-7.238-16.782-.995-1.555-2.162-3.14-3.877-3.825-1.17-.468-2.47-.46-3.73-.42-8.375.27-16.707 1.783-24.643 4.472-1.834.622-3.728 1.36-4.992 2.826-1.92 2.225-1.895 5.48-1.678 8.413.24 3.254.625 6.613 2.258 9.44 1.633 2.826 4.834 4.994 8.052 4.443l.82.47c.403 2.112 3.034 2.86 5.186 2.92 2.15.06 4.656.013 5.993 1.7.478.6.728 1.35 1.156 1.986 1.095 1.624 3.14 2.26 5.035 2.75 4.484 1.155 9.56 2.017 13.488-.434 2.795-1.74 4.467-4.93 4.98-8.18.513-3.253-.01-6.583-.808-9.78z"/>
  </g>
</svg>
